<?xml version="1.0" encoding="UTF-8"?>
<!-- Generated by jsxcad -->
<!DOCTYPE svg PUBLIC "-//W3C//DTD SVG 1.1 Tiny//EN" "http://www.w3.org/Graphics/SVG/1.1/DTD/svg11-tiny.dtd">
<svg baseProfile="tiny" height="24.75126903553301mm" width="42.00000000000003mm" viewBox="-21.000000000000014 -14.195939086294425 42.00000000000003 24.75126903553301" version="1.1" stroke="black" stroke-width=".1" fill="none" xmlns="http://www.w3.org/2000/svg">
<path fill="#000000" stroke="#000000" d="M-10 9.956345177664977 L-10 12.076142131979697 L-10 -2.0761421319796924 L-10 -4.1959390862944135 z"/>
<path fill="#000000" stroke="#000000" d="M10 9.956345177664977 L10 12.076142131979697 L-10 12.076142131979697 L-10 9.956345177664977 z"/>
<path fill="#000000" stroke="#000000" d="M10 -4.1959390862944135 L10 -2.0761421319796924 L10 12.076142131979697 L10 9.956345177664977 z"/>
<path fill="#000000" stroke="#000000" d="M-10 -4.195939086294414 L-10 -2.0761421319796964 L10 -2.0761421319796964 L10 -4.195939086294414 z"/>
<path fill="#000000" stroke="#000000" d="M-10 9.956345177664975 L-10 -4.195939086294413 L10 -4.195939086294413 L10 9.956345177664975 z"/>
<path fill="#000000" stroke="#000000" d="M-10 12.076142131979696 L10 12.076142131979696 L10 -2.0761421319796924 L-10 -2.0761421319796924 z"/>
<path fill="#000000" stroke="#000000" d="M-21 12.076142131979697 L-21 14.195939086294418 L-21 0.04365482233502804 L-21 -2.0761421319796924 z"/>
<path fill="#000000" stroke="#000000" d="M21 12.076142131979694 L21 14.195939086294418 L-21 14.195939086294418 L-21 12.076142131979694 z"/>
<path fill="#000000" stroke="#000000" d="M21 -2.0761421319796924 L21 0.04365482233502804 L21 14.195939086294418 L21 12.076142131979697 z"/>
<path fill="#000000" stroke="#000000" d="M-21 -2.0761421319796955 L-21 0.04365482233502755 L21 0.04365482233502755 L21 -2.0761421319796955 z"/>
<path fill="#000000" stroke="#000000" d="M-21 12.076142131979696 L-21 -2.0761421319796924 L21 -2.0761421319796924 L21 12.076142131979696 z"/>
<path fill="#000000" stroke="#000000" d="M-21 14.195939086294418 L21 14.195939086294418 L21 0.043654822335028036 L-21 0.043654822335028036 z"/>
<path fill="#000000" stroke="#000000" d="M12.679133974894992 4.146942963708624 L12.408768370508584 4.033962186240976 L12.408768370508584 -10.118322077718412 L12.679133974894992 -10.005341300250764 z"/>
<path fill="#000000" stroke="#000000" d="M12.679133974894992 4.146942963708624 L12.679133974894992 -10.005341300250763 L12.938926261462374 -9.880587959822138 L12.938926261462374 4.271696304137249 z"/>
<path fill="#000000" stroke="#000000" d="M10.000000000000009 -10.555329949238574 L10.313952597646576 -10.548358390792263 L10.313952597646576 3.6039258731671246 L10.000000000000009 3.5969543147208145 z"/>
<path fill="#000000" stroke="#000000" d="M14.755282581475772 -8.114090497893201 L14.842915805643157 -7.900955134348915 L14.842915805643157 6.251329129610474 L14.755282581475772 6.038193766066188 z"/>
<path fill="#000000" stroke="#000000" d="M12.408768370508584 -10.118322077718412 L12.408768370508584 4.033962186240976 L12.128896457825372 3.933199855246962 L12.128896457825372 -10.219084408712426 z"/>
<path fill="#000000" stroke="#000000" d="M14.381533400219316 8.831982523729922 L14.524135262330097 8.634225314361883 L14.524135262330095 -5.5180589495975045 L14.381533400219316 -5.320301740229468 z"/>
<path fill="#000000" stroke="#000000" d="M11.545084971874731 -3.662257181007981 L11.24344943582427 -3.6003356337790455 L11.24344943582427 10.551948630180343 L11.545084971874731 10.490027082951407 z"/>
<path fill="#000000" stroke="#000000" d="M14.045084971874736 9.206591551246506 L14.221639627510076 9.023022585306508 L14.221639627510074 -5.12926167865288 L14.045084971874738 -4.945692712712882 z"/>
<path fill="#000000" stroke="#000000" d="M14.755282581475768 -5.930579552868202 L14.648882429441256 -5.72175284939829 L14.648882429441256 8.430531414561099 L14.755282581475768 8.221704711091187 z"/>
<path fill="#000000" stroke="#000000" d="M14.045084971874742 5.0533069259108645 L14.045084971874743 -9.098977338048524 L14.221639627510081 -8.915408372108523 L14.221639627510081 5.2368758918508655 z"/>
<path fill="#000000" stroke="#000000" d="M10.626666167821531 3.6248130349498684 L10.626666167821531 -10.527471229009521 L10.936906572928631 -10.492750895975462 L10.936906572928631 3.659533367983926 z"/>
<path fill="#000000" stroke="#000000" d="M7.8711035421746445 -10.219084408712433 L8.159377236576617 -10.307230630346309 L8.159377236576617 3.84505363361308 L7.8711035421746445 3.933199855246955 z"/>
<path fill="#000000" stroke="#000000" d="M14.221639627510074 -5.12926167865288 L14.221639627510074 9.02302258530651 L14.381533400219316 8.831982523729922 L14.381533400219315 -5.320301740229468 z"/>
<path fill="#000000" stroke="#000000" d="M11.840622763423386 -3.737439420415108 L11.545084971874731 -3.662257181007981 L11.545084971874731 10.490027082951409 L11.840622763423386 10.414844843544282 z"/>
<path fill="#000000" stroke="#000000" d="M14.524135262330105 -8.526611101163896 L14.648882429441262 -8.322917201363111 L14.64888242944126 5.829367062596276 L14.524135262330104 5.625673162795492 z"/>
<path fill="#000000" stroke="#000000" d="M14.911436253643446 -7.684352258637874 L14.96057350657239 -7.465136703354075 L14.96057350657239 6.687147560605314 L14.911436253643446 6.467932005321515 z"/>
<path fill="#000000" stroke="#000000" d="M13.852566213878953 4.87793351845134 L13.852566213878953 -9.274350745508048 L14.045084971874742 -9.098977338048524 L14.045084971874742 5.0533069259108645 z"/>
<path fill="#000000" stroke="#000000" d="M13.852566213878944 -4.770319305253355 L13.644843137107056 -4.603833574993054 L13.644843137107058 9.548450688966334 L13.852566213878946 9.381964958706034 z"/>
<path fill="#000000" stroke="#000000" d="M11.545084971874745 3.769871394205959 L11.545084971874745 -10.382412869753429 L11.840622763423397 -10.307230630346302 L11.840622763423397 3.8450536336130865 z"/>
<path fill="#000000" stroke="#000000" d="M13.18711994874345 9.852168614070811 L13.422735529643441 9.705391698910168 L13.422735529643443 -4.446892565049222 L13.187119948743447 -4.3001156498885775 z"/>
<path fill="#000000" stroke="#000000" d="M10.000000000000009 -10.555329949238573 L10.000000000000009 3.596954314720814 L9.686047402353443 3.603925873167123 L9.686047402353443 -10.548358390792265 z"/>
<path fill="#000000" stroke="#000000" d="M14.648882429441256 8.430531414561099 L14.648882429441256 -5.72175284939829 L14.524135262330097 -5.5180589495975045 L14.524135262330097 8.634225314361883 z"/>
<path fill="#000000" stroke="#000000" d="M13.644843137107065 4.711447788191038 L13.422735529643452 4.5545067782472035 L13.422735529643452 -9.597777485712186 L13.644843137107063 -9.44083647576835 z"/>
<path fill="#000000" stroke="#000000" d="M12.67913397489498 10.112955513448746 L12.938926261462361 9.98820217302012 L12.938926261462361 -4.164082090939267 L12.67913397489498 -4.039328750510642 z"/>
<path fill="#000000" stroke="#000000" d="M14.381533400219324 5.427915953427453 L14.221639627510081 5.2368758918508655 L14.221639627510081 -8.915408372108523 L14.381533400219324 -8.724368310531935 z"/>
<path fill="#000000" stroke="#000000" d="M14.911436253643444 -6.360317792123526 L14.842915805643155 -6.143714916412489 L14.842915805643155 8.0085693475469 L14.911436253643444 7.791966471835862 z"/>
<path fill="#000000" stroke="#000000" d="M9.999999999999998 10.662944162436549 L10.313952597646562 10.65597260399024 L10.313952597646562 -3.4963116599691486 L9.999999999999998 -3.4893401015228394 z"/>
<path fill="#000000" stroke="#000000" d="M13.187119948743456 4.407729863086559 L12.938926261462372 4.271696304137249 L12.938926261462372 -9.880587959822138 L13.187119948743456 -9.744554400872829 z"/>
<path fill="#000000" stroke="#000000" d="M-9.999999999999998 9.956345177664977 L-9.999999999999998 -4.195939086294413 L7.871103542174644 -10.219084408712433 L7.871103542174644 3.933199855246956 z"/>
<path fill="#000000" stroke="#000000" d="M12.128896457825372 -10.219084408712428 L12.128896457825372 3.9331998552469623 L11.840622763423399 3.8450536336130865 L11.840622763423399 -10.307230630346304 z"/>
<path fill="#000000" stroke="#000000" d="M9.373333832178488 -10.527471229009523 L9.686047402353443 -10.548358390792265 L9.686047402353443 3.6039258731671233 L9.373333832178488 3.6248130349498657 z"/>
<path fill="#000000" stroke="#000000" d="M14.755282581475772 -8.1140904978932 L14.755282581475772 6.038193766066188 L14.64888242944126 5.829367062596276 L14.64888242944126 -8.322917201363111 z"/>
<path fill="#000000" stroke="#000000" d="M9.063093427071387 -10.492750895975465 L9.373333832178488 -10.527471229009523 L9.373333832178488 3.624813034949866 L9.063093427071387 3.659533367983924 z"/>
<path fill="#000000" stroke="#000000" d="M11.243449435824282 3.7079498469770225 L10.936906572928631 3.659533367983926 L10.936906572928631 -10.492750895975464 L11.243449435824282 -10.444334416982366 z"/>
<path fill="#000000" stroke="#000000" d="M14.755282581475768 -5.930579552868202 L14.755282581475768 8.221704711091187 L14.842915805643155 8.0085693475469 L14.842915805643155 -6.143714916412489 z"/>
<path fill="#000000" stroke="#000000" d="M14.842915805643157 6.251329129610473 L14.842915805643159 -7.900955134348915 L14.911436253643446 -7.684352258637874 L14.911436253643446 6.467932005321515 z"/>
<path fill="#000000" stroke="#000000" d="M14.960573506572388 7.572750916552062 L14.990133642141359 7.351787825342145 L14.990133642141359 -6.800496438617244 L14.960573506572388 -6.5795333474073265 z"/>
<path fill="#000000" stroke="#000000" d="M8.45491502812527 -10.382412869753434 L8.45491502812527 3.7698713942059543 L8.159377236576617 3.8450536336130803 L8.159377236576617 -10.307230630346309 z"/>
<path fill="#000000" stroke="#000000" d="M8.45491502812527 -10.382412869753434 L8.756550564175734 -10.44433441698237 L8.756550564175734 3.7079498469770185 L8.45491502812527 3.769871394205954 z"/>
<path fill="#000000" stroke="#000000" d="M14.381533400219324 5.427915953427453 L14.381533400219324 -8.724368310531936 L14.524135262330104 -8.526611101163898 L14.524135262330104 5.625673162795492 z"/>
<path fill="#000000" stroke="#000000" d="M10.626666167821517 10.635085442207496 L10.936906572928619 10.60036510917344 L10.936906572928619 -3.551919154785949 L10.626666167821517 -3.5171988217518924 z"/>
<path fill="#000000" stroke="#000000" d="M13.18711994874345 9.852168614070811 L13.187119948743453 -4.3001156498885775 L12.938926261462363 -4.164082090939267 L12.938926261462363 9.98820217302012 z"/>
<path fill="#000000" stroke="#000000" d="M14.990133642141357 -7.24417361214416 L14.990133642141357 6.908110651815229 L14.96057350657239 6.687147560605314 L14.960573506572391 -7.465136703354076 z"/>
<path fill="#000000" stroke="#000000" d="M10.626666167821517 10.635085442207496 L10.626666167821517 -3.517198821751892 L10.313952597646562 -3.496311659969149 L10.313952597646562 10.65597260399024 z"/>
<path fill="#000000" stroke="#000000" d="M13.852566213878953 4.87793351845134 L13.644843137107065 4.711447788191038 L13.644843137107063 -9.44083647576835 L13.852566213878953 -9.274350745508048 z"/>
<path fill="#000000" stroke="#000000" d="M12.67913397489498 10.112955513448746 L12.67913397489498 -4.039328750510642 L12.408768370508573 -3.9263479730429958 L12.408768370508573 10.225936290916392 z"/>
<path fill="#000000" stroke="#000000" d="M9.063093427071387 -10.492750895975465 L9.063093427071387 3.6595333679839235 L8.756550564175734 3.7079498469770185 L8.756550564175734 -10.44433441698237 z"/>
<path fill="#000000" stroke="#000000" d="M11.24344943582427 10.551948630180343 L11.24344943582427 -3.600335633779046 L10.936906572928619 -3.551919154785949 L10.936906572928619 10.60036510917344 z"/>
<path fill="#000000" stroke="#000000" d="M14.960573506572388 7.572750916552062 L14.960573506572388 -6.5795333474073265 L14.911436253643444 -6.360317792123526 L14.911436253643444 7.791966471835862 z"/>
<path fill="#000000" stroke="#000000" d="M-10 10.662944162436549 L10 10.662944162436549 L10 -3.4893401015228394 L-10 -3.4893401015228394 z"/>
<path fill="#000000" stroke="#000000" d="M-10 -3.48934010152284 L-10 -4.1959390862944135 L-10 9.956345177664977 L-10 10.66294416243655 z"/>
<path fill="#000000" stroke="#000000" d="M14.999999999999998 -7.022335025380706 L14.990133642141359 -6.800496438617245 L14.990133642141359 7.351787825342145 L15 7.129949238578682 z"/>
<path fill="#000000" stroke="#000000" d="M13.187119948743455 4.40772986308656 L13.187119948743456 -9.744554400872829 L13.422735529643452 -9.597777485712186 L13.42273552964345 4.5545067782472035 z"/>
<path fill="#000000" stroke="#000000" d="M12.408768370508573 10.225936290916392 L12.408768370508573 -3.9263479730429958 L12.128896457825359 -3.8255856420489827 L12.128896457825359 10.326698621910406 z"/>
<path fill="#000000" stroke="#000000" d="M13.644843137107058 9.548450688966334 L13.644843137107056 -4.603833574993054 L13.422735529643441 -4.446892565049221 L13.422735529643443 9.705391698910168 z"/>
<path fill="#000000" stroke="#000000" d="M10.313952597646576 -10.548358390792265 L10.626666167821531 -10.527471229009521 L10.626666167821531 3.6248130349498684 L10.313952597646576 3.6039258731671246 z"/>
<path fill="#000000" stroke="#000000" d="M11.840622763423386 10.41484484354428 L12.128896457825359 10.326698621910406 L12.128896457825359 -3.8255856420489827 L11.840622763423386 -3.737439420415108 z"/>
<path fill="#000000" stroke="#000000" d="M13.852566213878944 -4.770319305253355 L13.852566213878944 9.381964958706032 L14.045084971874736 9.206591551246506 L14.045084971874736 -4.945692712712882 z"/>
<path fill="#000000" stroke="#000000" d="M14.524135262330105 -8.526611101163901 L14.381533400219325 -8.724368310531942 L14.221639627510083 -8.915408372108526 L14.045084971874743 -9.098977338048526 L13.852566213878955 -9.274350745508054 L13.644843137107067 -9.440836475768352 L13.422735529643454 -9.597777485712188 L13.187119948743458 -9.744554400872834 L12.938926261462376 -9.880587959822144 L12.679133974894993 -10.005341300250768 L12.408768370508586 -10.118322077718416 L12.128896457825373 -10.219084408712432 L11.8406227634234 -10.307230630346304 L11.545084971874747 -10.382412869753434 L11.243449435824283 -10.444334416982372 L10.936906572928633 -10.492750895975467 L10.626666167821533 -10.527471229009526 L10.313952597646578 -10.54835839079227 L10.00000000000001 -10.555329949238576 L9.686047402353445 -10.54835839079227 L9.37333383217849 -10.527471229009526 L9.063093427071388 -10.492750895975467 L8.756550564175736 -10.444334416982372 L8.454915028125273 -10.38241286975344 L8.159377236576619 -10.307230630346314 L7.871103542174645 -10.219084408712437 L-10 -4.195939086294416 L-10 -3.4893401015228434 L10 -3.4893401015228434 L10.313952597646564 -3.496311659969151 L10.626666167821519 -3.517198821751894 L10.93690657292862 -3.551919154785953 L11.243449435824271 -3.6003356337790486 L11.545084971874735 -3.6622571810079854 L11.840622763423388 -3.737439420415112 L12.12889645782536 -3.8255856420489835 L12.408768370508575 -3.9263479730429993 L12.679133974894981 -4.039328750510648 L12.938926261462363 -4.164082090939271 L13.187119948743447 -4.300115649888581 L13.422735529643441 -4.446892565049223 L13.644843137107056 -4.6038335749930575 L13.852566213878944 -4.770319305253357 L14.045084971874736 -4.9456927127128845 L14.221639627510074 -5.129261678652884 L14.381533400219316 -5.320301740229469 L14.524135262330097 -5.518058949597508 L14.648882429441256 -5.7217528493982925 L14.755282581475768 -5.9305795528682035 L14.842915805643155 -6.143714916412494 L14.911436253643444 -6.360317792123531 L14.960573506572388 -6.579533347407333 L14.990133642141359 -6.800496438617248 L15 -7.022335025380707 L14.990133642141359 -7.244173612144162 L14.960573506572391 -7.465136703354077 L14.911436253643448 -7.684352258637878 L14.842915805643159 -7.900955134348917 L14.755282581475774 -8.114090497893207 L14.648882429441262 -8.322917201363117 z"/>
<path fill="#000000" stroke="#000000" d="M14.990133642141357 6.908110651815229 L14.990133642141357 -7.24417361214416 L14.999999999999998 -7.022335025380707 L14.999999999999998 7.129949238578682 z"/>
<path fill="#000000" stroke="#000000" d="M11.243449435824282 -10.444334416982366 L11.545084971874745 -10.38241286975343 L11.545084971874745 3.7698713942059596 L11.243449435824282 3.7079498469770225 z"/>
<path fill="#000000" stroke="#000000" d="M12.408768370508586 4.033962186240975 L12.679133974894993 4.146942963708623 L12.938926261462376 4.271696304137248 L13.187119948743458 4.40772986308656 L13.422735529643454 4.554506778247203 L13.644843137107067 4.7114477881910375 L13.852566213878955 4.877933518451339 L14.045084971874743 5.053306925910864 L14.221639627510083 5.236875891850862 L14.381533400219325 5.42791595342745 L14.524135262330105 5.62567316279549 L14.648882429441262 5.8293670625962735 L14.755282581475774 6.038193766066185 L14.842915805643159 6.251329129610471 L14.911436253643448 6.467932005321514 L14.960573506572391 6.687147560605314 L14.990133642141359 6.908110651815227 L15 7.129949238578682 L14.990133642141359 7.351787825342143 L14.960573506572388 7.57275091655206 L14.911436253643444 7.79196647183586 L14.842915805643155 8.0085693475469 L14.755282581475768 8.221704711091185 L14.648882429441256 8.430531414561097 L14.524135262330097 8.634225314361883 L14.381533400219316 8.83198252372992 L14.221639627510074 9.023022585306508 L14.045084971874736 9.206591551246506 L13.852566213878944 9.38196495870603 L13.644843137107056 9.548450688966334 L13.422735529643441 9.705391698910166 L13.187119948743447 9.85216861407081 L12.938926261462363 9.98820217302012 L12.679133974894981 10.112955513448744 L12.408768370508575 10.22593629091639 L12.12889645782536 10.326698621910404 L11.840622763423388 10.41484484354428 L11.545084971874735 10.490027082951405 L11.243449435824271 10.551948630180341 L10.93690657292862 10.600365109173438 L10.626666167821519 10.635085442207496 L10.313952597646564 10.655972603990238 L10 10.662944162436549 L-10 10.662944162436549 L-10 9.956345177664975 L7.871103542174645 3.9331998552469547 L8.159377236576619 3.84505363361308 L8.454915028125273 3.769871394205954 L8.756550564175736 3.707949846977018 L9.063093427071388 3.659533367983923 L9.37333383217849 3.624813034949865 L9.686047402353445 3.6039258731671224 L10.00000000000001 3.596954314720814 L10.313952597646578 3.603925873167124 L10.626666167821533 3.6248130349498684 L10.936906572928633 3.6595333679839266 L11.243449435824283 3.7079498469770216 L11.545084971874747 3.769871394205959 L11.8406227634234 3.845053633613087 L12.128896457825373 3.9331998552469614 z"/>
<path fill="#000000" stroke="#000000" d="M17 6.594220634748869 L13 6.594220634748869 L13 6.422335025380717 L17 6.422335025380717 z"/>
<path fill="#000000" stroke="#000000" d="M17 6.754257370058673 L13 6.754257370058673 L13 6.5942206347488685 L17 6.5942206347488685 z"/>
<path fill="#000000" stroke="#000000" d="M17 6.901813639429693 L13 6.901813639429693 L13 6.754257370058674 L17 6.754257370058674 z"/>
<path fill="#000000" stroke="#000000" d="M17 7.036307105678765 L13 7.036307105678765 L13 6.901813639429692 L17 6.901813639429692 z"/>
<path fill="#000000" stroke="#000000" d="M17 7.157206984538829 L13 7.157206984538829 L13 7.036307105678766 L17 7.036307105678766 z"/>
<path fill="#000000" stroke="#000000" d="M17 7.264036139421921 L13 7.264036139421921 L13 7.157206984538829 L17 7.157206984538829 z"/>
<path fill="#000000" stroke="#000000" d="M17 7.356372964459319 L13 7.356372964459319 L13 7.264036139421921 L17 7.264036139421921 z"/>
<path fill="#000000" stroke="#000000" d="M17 7.433853048387281 L13 7.433853048387281 L13 7.356372964459319 L17 7.356372964459319 z"/>
<path fill="#000000" stroke="#000000" d="M17 7.496170612711825 L13 7.496170612711825 L13 7.433853048387281 L17 7.433853048387281 z"/>
<path fill="#000000" stroke="#000000" d="M17 7.543079718476752 L13 7.543079718476752 L13 7.496170612711825 L17 7.496170612711825 z"/>
<path fill="#000000" stroke="#000000" d="M17 7.574395236872341 L13 7.574395236872341 L13 7.543079718476752 L17 7.543079718476752 z"/>
<path fill="#000000" stroke="#000000" d="M17 7.5899935798541796 L13 7.5899935798541796 L13 7.574395236872341 L17 7.574395236872341 z"/>
<path fill="#000000" stroke="#000000" d="M17 7.589813187888726 L13 7.589813187888726 L13 7.5899935798541796 L17 7.5899935798541796 z"/>
<path fill="#000000" stroke="#000000" d="M17 7.573854772900655 L13 7.573854772900655 L13 7.589813187888726 L17 7.589813187888726 z"/>
<path fill="#000000" stroke="#000000" d="M17 7.542181315463218 L13 7.542181315463218 L13 7.573854772900655 L17 7.573854772900655 z"/>
<path fill="#000000" stroke="#000000" d="M17 7.494917816242693 L13 7.494917816242693 L13 7.5421813154632185 L17 7.5421813154632185 z"/>
<path fill="#000000" stroke="#000000" d="M17 7.432250802677866 L13 7.432250802677866 L13 7.494917816242693 L17 7.494917816242693 z"/>
<path fill="#000000" stroke="#000000" d="M17 7.354427592841441 L13 7.354427592841441 L13 7.432250802677867 L17 7.432250802677867 z"/>
<path fill="#000000" stroke="#000000" d="M17 7.261755319388601 L13 7.261755319388601 L13 7.354427592841441 L17 7.354427592841441 z"/>
<path fill="#000000" stroke="#000000" d="M17 7.15459971744473 L13 7.15459971744473 L13 7.261755319388602 L17 7.261755319388602 z"/>
<path fill="#000000" stroke="#000000" d="M17 7.033383681215962 L13 7.033383681215962 L13 7.15459971744473 L17 7.15459971744473 z"/>
<path fill="#000000" stroke="#000000" d="M17 6.898585595018949 L13 6.898585595018949 L13 7.033383681215961 L17 7.033383681215961 z"/>
<path fill="#000000" stroke="#000000" d="M17 6.75073744531653 L13 6.75073744531653 L13 6.898585595018949 L17 6.898585595018949 z"/>
<path fill="#000000" stroke="#000000" d="M17 6.5904227212101825 L13 6.5904227212101825 L13 6.75073744531653 L17 6.75073744531653 z"/>
<path fill="#000000" stroke="#000000" d="M17 6.418274111675129 L13 6.418274111675129 L13 6.590422721210182 L17 6.590422721210182 z"/>
<path fill="#000000" stroke="#000000" d="M17 -0.6578680203045657 L13 -0.6578680203045657 L13 6.418274111675128 L17 6.418274111675128 z"/>
<path fill="#000000" stroke="#000000" d="M17 -0.8411711233537209 L13 -0.8411711233537209 L13 -0.6578680203045658 L17 -0.6578680203045658 z"/>
<path fill="#000000" stroke="#000000" d="M17 -1.0349053063124587 L13 -1.0349053063124587 L13 -0.8411711233537209 L17 -0.8411711233537209 z"/>
<path fill="#000000" stroke="#000000" d="M17 -1.2383059888693695 L13 -1.2383059888693695 L13 -1.034905306312459 L17 -1.034905306312459 z"/>
<path fill="#000000" stroke="#000000" d="M17 -1.4505704414553342 L13 -1.4505704414553342 L13 -1.2383059888693695 L17 -1.2383059888693695 z"/>
<path fill="#000000" stroke="#000000" d="M17 -1.6708609532503997 L13 -1.6708609532503997 L13 -1.4505704414553342 L17 -1.4505704414553342 z"/>
<path fill="#000000" stroke="#000000" d="M17 -1.8983081382456741 L13 -1.8983081382456741 L13 -1.6708609532503997 L17 -1.6708609532503997 z"/>
<path fill="#000000" stroke="#000000" d="M17 -2.1320143663127133 L13 -2.1320143663127133 L13 -1.898308138245674 L17 -1.898308138245674 z"/>
<path fill="#000000" stroke="#000000" d="M17 -2.371057305739558 L13 -2.371057305739558 L13 -2.132014366312714 L17 -2.132014366312714 z"/>
<path fill="#000000" stroke="#000000" d="M17 -2.614493563252621 L13 -2.614493563252621 L13 -2.371057305739558 L17 -2.371057305739558 z"/>
<path fill="#000000" stroke="#000000" d="M17 -2.8613624071589445 L13 -2.8613624071589445 L13 -2.614493563252621 L17 -2.614493563252621 z"/>
<path fill="#000000" stroke="#000000" d="M17 -3.1106895589152783 L13 -3.1106895589152783 L13 -2.8613624071589445 L17 -2.8613624071589445 z"/>
<path fill="#000000" stroke="#000000" d="M17 -3.3614910381603798 L13 -3.3614910381603798 L13 -3.1106895589152783 L17 -3.1106895589152783 z"/>
<path fill="#000000" stroke="#000000" d="M17 -3.612777046035965 L13 -3.612777046035965 L13 -3.3614910381603798 L17 -3.3614910381603798 z"/>
<path fill="#000000" stroke="#000000" d="M17 -3.863555871470606 L13 -3.863555871470606 L13 -3.612777046035965 L17 -3.612777046035965 z"/>
<path fill="#000000" stroke="#000000" d="M17 -4.112837805010261 L13 -4.112837805010261 L13 -3.863555871470606 L17 -3.863555871470606 z"/>
<path fill="#000000" stroke="#000000" d="M17 -4.35963904474933 L13 -4.35963904474933 L13 -4.112837805010262 L17 -4.112837805010262 z"/>
<path fill="#000000" stroke="#000000" d="M17 -4.602985578947325 L13 -4.602985578947325 L13 -4.35963904474933 L17 -4.35963904474933 z"/>
<path fill="#000000" stroke="#000000" d="M17 -4.841917030008222 L13 -4.841917030008222 L13 -4.602985578947325 L17 -4.602985578947325 z"/>
<path fill="#000000" stroke="#000000" d="M17 -5.075490444652082 L13 -5.075490444652082 L13 -4.841917030008222 L17 -4.841917030008222 z"/>
<path fill="#000000" stroke="#000000" d="M17 -5.302784015320846 L13 -5.302784015320846 L13 -5.075490444652082 L17 -5.075490444652082 z"/>
<path fill="#000000" stroke="#000000" d="M17 -5.52290071813164 L13 -5.52290071813164 L13 -5.302784015320845 L17 -5.302784015320845 z"/>
<path fill="#000000" stroke="#000000" d="M17 -5.7349718530202285 L13 -5.7349718530202285 L13 -5.52290071813164 L17 -5.52290071813164 z"/>
<path fill="#000000" stroke="#000000" d="M17 -5.938160472103289 L13 -5.938160472103289 L13 -5.7349718530202285 L17 -5.7349718530202285 z"/>
<path fill="#000000" stroke="#000000" d="M17 -6.131664682729352 L13 -6.131664682729352 L13 -5.93816047210329 L17 -5.93816047210329 z"/>
<path fill="#000000" stroke="#000000" d="M17 -6.314720812182739 L13 -6.314720812182739 L13 -6.131664682729352 L17 -6.131664682729352 z"/>
<path fill="#000000" stroke="#000000" d="M17 -6.486606421550893 L13 -6.486606421550893 L13 -6.314720812182741 L17 -6.314720812182741 z"/>
<path fill="#000000" stroke="#000000" d="M17 -6.646643156860696 L13 -6.646643156860696 L13 -6.486606421550892 L17 -6.486606421550892 z"/>
<path fill="#000000" stroke="#000000" d="M17 -6.7941994262317165 L13 -6.7941994262317165 L13 -6.646643156860695 L17 -6.646643156860695 z"/>
<path fill="#000000" stroke="#000000" d="M17 -6.92869289248079 L13 -6.92869289248079 L13 -6.7941994262317165 L17 -6.7941994262317165 z"/>
<path fill="#000000" stroke="#000000" d="M17 -7.049592771340853 L13 -7.049592771340853 L13 -6.92869289248079 L17 -6.92869289248079 z"/>
<path fill="#000000" stroke="#000000" d="M17 -7.156421926223946 L13 -7.156421926223946 L13 -7.049592771340854 L17 -7.049592771340854 z"/>
<path fill="#000000" stroke="#000000" d="M17 -7.2487587512613425 L13 -7.2487587512613425 L13 -7.156421926223946 L17 -7.156421926223946 z"/>
<path fill="#000000" stroke="#000000" d="M17 -7.326238835189305 L13 -7.326238835189305 L13 -7.2487587512613425 L17 -7.2487587512613425 z"/>
<path fill="#000000" stroke="#000000" d="M17 -7.38855639951385 L13 -7.38855639951385 L13 -7.326238835189304 L17 -7.326238835189304 z"/>
<path fill="#000000" stroke="#000000" d="M17 -7.435465505278779 L13 -7.435465505278779 L13 -7.38855639951385 L17 -7.38855639951385 z"/>
<path fill="#000000" stroke="#000000" d="M17 -7.466781023674366 L13 -7.466781023674366 L13 -7.435465505278779 L17 -7.435465505278779 z"/>
<path fill="#000000" stroke="#000000" d="M17 -7.482379366656205 L13 -7.482379366656205 L13 -7.466781023674365 L17 -7.466781023674365 z"/>
<path fill="#000000" stroke="#000000" d="M17 -7.482198974690752 L13 -7.482198974690752 L13 -7.482379366656205 L17 -7.482379366656205 z"/>
<path fill="#000000" stroke="#000000" d="M17 -7.466240559702681 L13 -7.466240559702681 L13 -7.482198974690752 L17 -7.482198974690752 z"/>
<path fill="#000000" stroke="#000000" d="M17 -7.434567102265245 L13 -7.434567102265245 L13 -7.466240559702681 L17 -7.466240559702681 z"/>
<path fill="#000000" stroke="#000000" d="M17 -7.387303603044719 L13 -7.387303603044719 L13 -7.434567102265245 L17 -7.434567102265245 z"/>
<path fill="#000000" stroke="#000000" d="M17 -7.324636589479892 L13 -7.324636589479892 L13 -7.387303603044719 L17 -7.387303603044719 z"/>
<path fill="#000000" stroke="#000000" d="M17 -7.246813379643468 L13 -7.246813379643468 L13 -7.324636589479892 L17 -7.324636589479892 z"/>
<path fill="#000000" stroke="#000000" d="M17 -7.154141106190629 L13 -7.154141106190629 L13 -7.246813379643468 L17 -7.246813379643468 z"/>
<path fill="#000000" stroke="#000000" d="M17 -7.046985504246757 L13 -7.046985504246757 L13 -7.154141106190628 L17 -7.154141106190628 z"/>
<path fill="#000000" stroke="#000000" d="M17 -6.9257694680179895 L13 -6.9257694680179895 L13 -7.0469855042467575 L17 -7.0469855042467575 z"/>
<path fill="#000000" stroke="#000000" d="M17 -6.790971381820979 L13 -6.790971381820979 L13 -6.9257694680179895 L17 -6.9257694680179895 z"/>
<path fill="#000000" stroke="#000000" d="M17 -6.643123232118557 L13 -6.643123232118557 L13 -6.790971381820977 L17 -6.790971381820977 z"/>
<path fill="#000000" stroke="#000000" d="M17 -6.482808508012208 L13 -6.482808508012208 L13 -6.6431232321185565 L17 -6.6431232321185565 z"/>
<path fill="#000000" stroke="#000000" d="M17 -6.31065989847715 L13 -6.31065989847715 L13 -6.48280850801221 L17 -6.48280850801221 z"/>
<path fill="#000000" stroke="#000000" d="M17 0.7654822335025437 L13 0.7654822335025437 L13 -6.310659898477151 L17 -6.310659898477151 z"/>
<path fill="#000000" stroke="#000000" d="M17 0.9487853365516994 L13 0.9487853365516994 L13 0.7654822335025437 L17 0.7654822335025437 z"/>
<path fill="#000000" stroke="#000000" d="M17 1.1425195195104358 L13 1.1425195195104358 L13 0.9487853365516993 L17 0.9487853365516993 z"/>
<path fill="#000000" stroke="#000000" d="M17 1.345920202067347 L13 1.345920202067347 L13 1.1425195195104358 L17 1.1425195195104358 z"/>
<path fill="#000000" stroke="#000000" d="M17 1.5581846546533122 L13 1.5581846546533122 L13 1.345920202067347 L17 1.345920202067347 z"/>
<path fill="#000000" stroke="#000000" d="M17 1.778475166448378 L13 1.778475166448378 L13 1.5581846546533122 L17 1.5581846546533122 z"/>
<path fill="#000000" stroke="#000000" d="M17 2.0059223514436524 L13 2.0059223514436524 L13 1.7784751664483782 L17 1.7784751664483782 z"/>
<path fill="#000000" stroke="#000000" d="M17 2.2396285795106925 L13 2.2396285795106925 L13 2.0059223514436524 L17 2.0059223514436524 z"/>
<path fill="#000000" stroke="#000000" d="M17 2.478671518937537 L13 2.478671518937537 L13 2.239628579510692 L17 2.239628579510692 z"/>
<path fill="#000000" stroke="#000000" d="M17 2.7221077764505996 L13 2.7221077764505996 L13 2.4786715189375363 L17 2.4786715189375363 z"/>
<path fill="#000000" stroke="#000000" d="M17 2.9689766203569237 L13 2.9689766203569237 L13 2.7221077764505996 L17 2.7221077764505996 z"/>
<path fill="#000000" stroke="#000000" d="M17 3.218303772113258 L13 3.218303772113258 L13 2.968976620356924 L17 2.968976620356924 z"/>
<path fill="#000000" stroke="#000000" d="M17 3.469105251358357 L13 3.469105251358357 L13 3.2183037721132575 L17 3.2183037721132575 z"/>
<path fill="#000000" stroke="#000000" d="M17 3.7203912592339434 L13 3.7203912592339434 L13 3.469105251358357 L17 3.469105251358357 z"/>
<path fill="#000000" stroke="#000000" d="M17 3.9711700846685853 L13 3.9711700846685853 L13 3.7203912592339434 L17 3.7203912592339434 z"/>
<path fill="#000000" stroke="#000000" d="M17 4.220452018208239 L13 4.220452018208239 L13 3.9711700846685853 L17 3.9711700846685853 z"/>
<path fill="#000000" stroke="#000000" d="M17 4.46725325794731 L13 4.46725325794731 L13 4.22045201820824 L17 4.22045201820824 z"/>
<path fill="#000000" stroke="#000000" d="M17 4.710599792145304 L13 4.710599792145304 L13 4.46725325794731 L17 4.46725325794731 z"/>
<path fill="#000000" stroke="#000000" d="M17 4.949531243206202 L13 4.949531243206202 L13 4.710599792145304 L17 4.710599792145304 z"/>
<path fill="#000000" stroke="#000000" d="M17 5.183104657850062 L13 5.183104657850062 L13 4.949531243206202 L17 4.949531243206202 z"/>
<path fill="#000000" stroke="#000000" d="M17 5.410398228518825 L13 5.410398228518825 L13 5.183104657850062 L17 5.183104657850062 z"/>
<path fill="#000000" stroke="#000000" d="M17 5.630514931329621 L13 5.630514931329621 L13 5.410398228518826 L17 5.410398228518826 z"/>
<path fill="#000000" stroke="#000000" d="M17 5.8425860662182085 L13 5.8425860662182085 L13 5.630514931329621 L17 5.630514931329621 z"/>
<path fill="#000000" stroke="#000000" d="M17 6.045774685301269 L13 6.045774685301269 L13 5.8425860662182085 L17 5.8425860662182085 z"/>
<path fill="#000000" stroke="#000000" d="M17 6.239278895927332 L13 6.239278895927332 L13 6.045774685301269 L17 6.045774685301269 z"/>
<path fill="#000000" stroke="#000000" d="M17 6.422335025380718 L13 6.422335025380718 L13 6.239278895927332 L17 6.239278895927332 z"/>
<path fill="#000000" stroke="#000000" d="M17 6.59422063474887 L17 6.422335025380719 L17 6.239278895927332 L17 6.04577468530127 L17 5.8425860662182085 L17 5.630514931329621 L17 5.410398228518826 L17 5.183104657850062 L17 4.949531243206203 L17 4.710599792145305 L17 4.467253257947311 L17 4.22045201820824 L17 3.971170084668586 L17 3.720391259233944 L17 3.4691052513583576 L17 3.218303772113258 L17 2.968976620356924 L17 2.7221077764506 L17 2.478671518937537 L17 2.2396285795106925 L17 2.0059223514436524 L17 1.7784751664483782 L17 1.5581846546533122 L17 1.3459202020673473 L17 1.142519519510436 L17 0.9487853365516994 L17 0.7654822335025439 L17 -6.310659898477151 L17 -6.482808508012211 L17 -6.64312323211856 L17 -6.79097138182098 L17 -6.9257694680179895 L17 -7.046985504246758 L17 -7.154141106190629 L17 -7.246813379643469 L17 -7.324636589479893 L17 -7.38730360304472 L17 -7.434567102265245 L17 -7.466240559702681 L17 -7.482198974690752 L17 -7.482379366656205 L17 -7.466781023674365 L17 -7.435465505278779 L17 -7.38855639951385 L17 -7.326238835189304 L17 -7.2487587512613425 L17 -7.1564219262239455 L17 -7.049592771340853 L17 -6.92869289248079 L17 -6.7941994262317165 L17 -6.646643156860695 L17 -6.486606421550892 L17 -6.314720812182739 L17 -6.131664682729352 L17 -5.93816047210329 L17 -5.734971853020229 L17 -5.52290071813164 L17 -5.302784015320846 L17 -5.075490444652082 L17 -4.841917030008223 L17 -4.602985578947325 L17 -4.35963904474933 L17 -4.112837805010262 L17 -3.863555871470606 L17 -3.6127770460359656 L17 -3.3614910381603798 L17 -3.1106895589152783 L17 -2.861362407158945 L17 -2.614493563252621 L17 -2.371057305739558 L17 -2.132014366312714 L17 -1.8983081382456741 L17 -1.6708609532504 L17 -1.4505704414553342 L17 -1.2383059888693695 L17 -1.034905306312459 L17 -0.8411711233537211 L17 -0.6578680203045658 L17 6.418274111675129 L17 6.590422721210182 L17 6.750737445316529 L17 6.898585595018948 L17 7.03338368121596 L17 7.154599717444729 L17 7.261755319388601 L17 7.35442759284144 L17 7.432250802677866 L17 7.494917816242693 L17 7.542181315463218 L17 7.573854772900655 L17 7.589813187888726 L17 7.5899935798541796 L17 7.574395236872341 L17 7.543079718476752 L17 7.4961706127118255 L17 7.433853048387281 L17 7.35637296445932 L17 7.264036139421922 L17 7.1572069845388295 L17 7.036307105678767 L17 6.901813639429694 L17 6.754257370058675 z"/>
<path fill="#000000" stroke="#000000" d="M13 6.59422063474887 L13 6.754257370058675 L13 6.901813639429694 L13 7.036307105678767 L13 7.1572069845388295 L13 7.264036139421922 L13 7.35637296445932 L13 7.433853048387281 L13 7.4961706127118255 L13 7.543079718476752 L13 7.574395236872341 L13 7.5899935798541796 L13 7.589813187888726 L13 7.573854772900655 L13 7.542181315463218 L13 7.494917816242693 L13 7.432250802677866 L13 7.35442759284144 L13 7.261755319388601 L13 7.154599717444729 L13 7.03338368121596 L13 6.898585595018948 L13 6.750737445316529 L13 6.590422721210182 L13 6.418274111675129 L13 -0.6578680203045658 L13 -0.8411711233537211 L13 -1.034905306312459 L13 -1.2383059888693695 L13 -1.4505704414553342 L13 -1.6708609532504 L13 -1.8983081382456741 L13 -2.132014366312714 L13 -2.371057305739558 L13 -2.614493563252621 L13 -2.861362407158945 L13 -3.1106895589152783 L13 -3.3614910381603798 L13 -3.6127770460359656 L13 -3.863555871470606 L13 -4.112837805010262 L13 -4.35963904474933 L13 -4.602985578947325 L13 -4.841917030008223 L13 -5.075490444652082 L13 -5.302784015320846 L13 -5.52290071813164 L13 -5.734971853020229 L13 -5.93816047210329 L13 -6.131664682729352 L13 -6.314720812182739 L13 -6.486606421550892 L13 -6.646643156860695 L13 -6.7941994262317165 L13 -6.92869289248079 L13 -7.049592771340853 L13 -7.1564219262239455 L13 -7.2487587512613425 L13 -7.326238835189304 L13 -7.38855639951385 L13 -7.435465505278779 L13 -7.466781023674365 L13 -7.482379366656205 L13 -7.482198974690752 L13 -7.466240559702681 L13 -7.434567102265245 L13 -7.38730360304472 L13 -7.324636589479893 L13 -7.246813379643469 L13 -7.154141106190629 L13 -7.046985504246758 L13 -6.9257694680179895 L13 -6.79097138182098 L13 -6.64312323211856 L13 -6.482808508012211 L13 -6.310659898477151 L13 0.7654822335025439 L13 0.9487853365516994 L13 1.142519519510436 L13 1.3459202020673473 L13 1.5581846546533122 L13 1.7784751664483782 L13 2.0059223514436524 L13 2.2396285795106925 L13 2.478671518937537 L13 2.7221077764506 L13 2.968976620356924 L13 3.218303772113258 L13 3.4691052513583576 L13 3.720391259233944 L13 3.971170084668586 L13 4.22045201820824 L13 4.467253257947311 L13 4.710599792145305 L13 4.949531243206203 L13 5.183104657850062 L13 5.410398228518826 L13 5.630514931329621 L13 5.8425860662182085 L13 6.04577468530127 L13 6.239278895927332 L13 6.422335025380719 z"/>
</svg>