<?xml version="1.0" encoding="UTF-8"?>
<!-- Generated by jsxcad -->
<!DOCTYPE svg PUBLIC "-//W3C//DTD SVG 1.1 Tiny//EN" "http://www.w3.org/Graphics/SVG/1.1/DTD/svg11-tiny.dtd">
<svg baseProfile="tiny" height="36.57842639593911mm" width="20.000000000000014mm" viewBox="-10.000000000000007 -35.76962774957701 20.000000000000014 36.57842639593911" version="1.1" stroke="black" stroke-width=".1" fill="none" xmlns="http://www.w3.org/2000/svg">
<path fill="#3c3c3c" stroke="#3c3c3c" d="M3.051884935757553e-16 12.095008460236889 L0.8749999999999993 12.260912535093672 L0.8750000000000002 12.260912535093672 L1.5155444566227678 12.714170896785113 L1.75 13.333333333333336 L1.5155444566227674 13.952495769881558 L0.8749999999999989 14.405754131573 L-1.768625424326006e-15 14.571658206429783 L-0.8750000000000011 14.405754131573 L-0.8750000000000013 14.405754131573 L-1.5155444566227683 13.952495769881558 L-1.75 13.333333333333336 L-1.5155444566227674 12.714170896785113 L-0.8749999999999997 12.260912535093672 z"/>
<path fill="#3c3c3c" stroke="#3c3c3c" d="M1.5155444566227692 33.912140439932315 L1.750000000000001 34.53130287648054 L1.7500000000000009 13.333333333333336 L1.515544456622769 12.714170896785113 z"/>
<path fill="#3c3c3c" stroke="#3c3c3c" d="M0.875000000000007 33.458882078240876 L1.5155444566227683 33.912140439932315 L1.5155444566227683 12.714170896785115 L0.8750000000000069 12.260912535093668 z"/>
<path fill="#3c3c3c" stroke="#3c3c3c" d="M0.8749999999999993 12.260912535093658 L3.0518849357575523e-16 12.095008460236874 L3.0518849357575523e-16 33.292978003384086 L0.8750000000000001 33.45888207824087 L0.8750000000000001 12.260912535093658 z"/>
<path fill="#3c3c3c" stroke="#3c3c3c" d="M-0.8749999999999996 33.458882078240876 L3.0518849357575523e-16 33.29297800338409 L3.0518849357575523e-16 12.09500846023688 L-0.8749999999999996 12.260912535093663 z"/>
<path fill="#3c3c3c" stroke="#3c3c3c" d="M-1.5155444566227674 33.912140439932315 L-0.8750000000000059 33.458882078240876 L-0.8750000000000036 12.260912535093672 L-1.5155444566227723 12.714170896785113 z"/>
<path fill="#3c3c3c" stroke="#3c3c3c" d="M-1.7500000000000027 34.53130287648054 L-1.5155444566227705 33.912140439932315 L-1.5155444566227685 12.714170896785113 L-1.750000000000001 13.333333333333336 z"/>
<path fill="#3c3c3c" stroke="#3c3c3c" d="M-1.5155444566227654 35.15046531302876 L-1.7499999999999967 34.53130287648054 L-1.7499999999999982 13.333333333333336 L-1.5155444566227665 13.952495769881558 z"/>
<path fill="#3c3c3c" stroke="#3c3c3c" d="M0.8749999999999987 35.60372367472021 L-1.7686254243260057e-15 35.76962774957698 L-1.7686254243260057e-15 14.571658206429774 L0.8749999999999987 14.405754131572992 z"/>
<path fill="#3c3c3c" stroke="#3c3c3c" d="M-0.8749999999999967 35.6037236747202 L-1.5155444566227645 35.15046531302876 L-1.515544456622762 13.952495769881555 L-0.8749999999999939 14.405754131572996 z"/>
<path fill="#3c3c3c" stroke="#3c3c3c" d="M-0.875000000000001 14.405754131572992 L-1.7686254243260059e-15 14.571658206429776 L-1.7686254243260059e-15 35.769627749576976 L-0.8750000000000011 35.60372367472019 L-0.8750000000000011 14.405754131572992 z"/>
<path fill="#3c3c3c" stroke="#3c3c3c" d="M1.515544456622761 35.15046531302876 L0.8749999999999986 35.60372367472021 L0.8749999999999952 14.405754131573001 L1.5155444566227663 13.95249576988156 z"/>
<path fill="#3c3c3c" stroke="#3c3c3c" d="M1.75 34.53130287648054 L1.5155444566227665 35.15046531302876 L1.5155444566227672 13.95249576988156 L1.75 13.333333333333336 z"/>
<path fill="#3c3c3c" stroke="#3c3c3c" d="M1.75 34.53130287648054 L1.5155444566227678 33.912140439932315 L0.8750000000000002 33.458882078240876 L3.051884935757553e-16 33.29297800338409 L-0.8749999999999997 33.458882078240876 L-1.5155444566227674 33.912140439932315 L-1.75 34.53130287648054 L-1.5155444566227683 35.15046531302876 L-0.8750000000000013 35.6037236747202 L-1.768625424326006e-15 35.76962774957699 L0.8749999999999989 35.60372367472021 L1.5155444566227674 35.15046531302876 z"/>
<path fill="#dfb1e8" stroke="#dfb1e8" d="M2.8750000000000018 9.809664996260155 L2.8750000000000004 6.276670072402288 L5.750000000000003 9.800338409475467 L5.75 13.333333333333336 z"/>
<path fill="#dfb1e8" stroke="#dfb1e8" d="M-5.750000000000002 13.333333333333334 L-5.750000000000001 9.800338409475467 L-2.875000000000001 6.276670072402286 L-2.875000000000002 9.809664996260153 z"/>
<path fill="#dfb1e8" stroke="#dfb1e8" d="M-2.875 16.857001670406515 L-2.875000000000001 13.32400674654865 L-5.749999999999998 9.800338409475467 L-5.749999999999997 13.333333333333334 z"/>
<path fill="#dfb1e8" stroke="#dfb1e8" d="M2.8749999999999996 9.809664996260151 L-2.042033359469874 9.809664996260151 L-2.8749999999999987 9.809664996260151 L-2.8749999999999987 6.276670072402284 L2.8749999999999996 6.276670072402284 z"/>
<path fill="#dfb1e8" stroke="#dfb1e8" d="M-2.8750000000000013 16.857001670406504 L-1.1006030730619514 16.857001670406508 L2.874999999999996 16.857001670406508 L2.874999999999996 13.324006746548651 L-2.8750000000000013 13.324006746548648 z"/>
<path fill="#dfb1e8" stroke="#dfb1e8" d="M5.749999999999999 13.333333333333336 L5.749999999999998 9.800338409475469 L2.8749999999999947 13.324006746548651 L2.874999999999995 16.857001670406518 z"/>
<path fill="#dfb1e8" stroke="#dfb1e8" d="M5.75 9.800338409475467 L2.875 6.276670072402287 L-2.874999999999999 6.276670072402286 L-5.75 9.800338409475467 L-2.8750000000000018 13.32400674654865 L2.8749999999999964 13.324006746548651 z"/>
<path fill="#dfb1e8" stroke="#dfb1e8" d="M9.980267284282716 12.889018692603065 L10 13.333333333333334 L9.999999999999998 6.2673434856176 L9.980267284282716 5.823028844887331 z"/>
<path fill="#dfb1e8" stroke="#dfb1e8" d="M9.921147013144777 12.446457558771709 L9.980267284282716 12.889018692603067 L9.980267284282716 5.8230288448873315 L9.921147013144777 5.380467711055974 z"/>
<path fill="#dfb1e8" stroke="#dfb1e8" d="M9.822872507286887 12.007396518447546 L9.921147013144777 12.44645755877171 L9.921147013144777 5.380467711055974 L9.822872507286887 4.941406670731811 z"/>
<path fill="#dfb1e8" stroke="#dfb1e8" d="M9.685831611286313 11.573568344968828 L9.822872507286887 12.007396518447546 L9.822872507286887 4.941406670731811 L9.68583161128631 4.507578497253094 z"/>
<path fill="#dfb1e8" stroke="#dfb1e8" d="M9.510565162951536 11.146685159939036 L9.68583161128631 11.573568344968828 L9.68583161128631 4.507578497253094 L9.510565162951535 4.080695312223301 z"/>
<path fill="#dfb1e8" stroke="#dfb1e8" d="M9.297764858882514 10.728431676265105 L9.510565162951535 11.146685159939036 L9.510565162951536 4.0806953122233 L9.297764858882513 3.66244182854937 z"/>
<path fill="#dfb1e8" stroke="#dfb1e8" d="M9.048270524660195 10.320458549365256 L9.297764858882514 10.728431676265103 L9.297764858882514 3.6624418285493694 L9.048270524660193 3.2544687016495204 z"/>
<path fill="#dfb1e8" stroke="#dfb1e8" d="M8.763066800438635 9.92437586278617 L9.048270524660193 10.320458549365256 L9.048270524660193 3.254468701649521 L8.763066800438637 2.858386015070435 z"/>
<path fill="#dfb1e8" stroke="#dfb1e8" d="M8.44327925502015 9.541746773938808 L8.763066800438637 9.92437586278617 L8.763066800438637 2.8583860150704337 L8.44327925502015 2.4757569262230734 z"/>
<path fill="#dfb1e8" stroke="#dfb1e8" d="M8.090169943749473 9.174081345030249 L8.443279255020151 9.541746773938806 L8.443279255020148 2.4757569262230743 L8.090169943749475 2.1080914973145126 z"/>
<path fill="#dfb1e8" stroke="#dfb1e8" d="M6.845471059286886 8.175047715945272 L7.289686274214114 8.489380715746572 L7.289686274214115 1.423390868030835 L6.845471059286886 1.1090578682295356 z"/>
<path fill="#dfb1e8" stroke="#dfb1e8" d="M7.70513242775789 8.822830583538037 L8.090169943749473 9.17408134503025 L8.090169943749476 2.108091497314513 L7.705132427757894 1.7568407358223 z"/>
<path fill="#dfb1e8" stroke="#dfb1e8" d="M7.289686274214113 8.48938071574657 L7.70513242775789 8.822830583538037 L7.705132427757891 1.7568407358222997 L7.289686274214114 1.423390868030834 z"/>
<path fill="#dfb1e8" stroke="#dfb1e8" d="M5.35826794978996 7.358748926481509 L5.877852522924726 7.6086140939491855 L5.877852522924726 0.5426242462334413 L5.35826794978996 0.2927590787657645 z"/>
<path fill="#dfb1e8" stroke="#dfb1e8" d="M4.817536741017148 7.132462714139695 L5.35826794978996 7.358748926481505 L5.35826794978996 0.2927590787657708 L4.817536741017148 0.06647286642396082 z"/>
<path fill="#dfb1e8" stroke="#dfb1e8" d="M5.877852522924729 7.608614093949186 L6.374239897486901 7.881072112879272 L6.3742398974869 0.8150822651635388 L5.877852522924728 0.542624246233454 z"/>
<path fill="#dfb1e8" stroke="#dfb1e8" d="M4.257792915650721 6.930648505223521 L4.817536741017148 7.132462714139692 L4.817536741017148 0.06647286642395867 L4.257792915650721 -0.13534134249221133 z"/>
<path fill="#dfb1e8" stroke="#dfb1e8" d="M3.6812455268467748 6.7541027682154455 L4.257792915650721 6.930648505223521 L4.257792915650721 -0.1353413424922131 L3.6812455268467748 -0.31188707950028943 z"/>
<path fill="#dfb1e8" stroke="#dfb1e8" d="M3.090169943749469 6.6035222484833636 L3.6812455268467748 6.7541027682154535 L3.6812455268467748 -0.31188707950028444 L3.090169943749469 -0.4624675992323741 z"/>
<path fill="#dfb1e8" stroke="#dfb1e8" d="M2.4868988716485423 6.479501218544943 L3.0901699437494687 6.6035222484833564 L3.0901699437494687 -0.46246759923237757 L2.4868988716485423 -0.5864886291707915 z"/>
<path fill="#dfb1e8" stroke="#dfb1e8" d="M1.873813145857241 6.382529132745549 L2.4868988716485423 6.479501218544941 L2.4868988716485423 -0.5864886291707907 L1.873813145857241 -0.6834607149701829 z"/>
<path fill="#dfb1e8" stroke="#dfb1e8" d="M1.2533323356430366 6.312988695605503 L1.873813145857241 6.382529132745554 L1.873813145857241 -0.6834607149701772 L1.2533323356430366 -0.7530011521102278 z"/>
<path fill="#dfb1e8" stroke="#dfb1e8" d="M6.374239897486895 7.8810721128792744 L6.845471059286886 8.175047715945272 L6.845471059286883 1.1090578682295402 L6.374239897486897 0.8150822651635377 z"/>
<path fill="#dfb1e8" stroke="#dfb1e8" d="M0.627905195293128 6.2711543514601855 L1.2533323356430368 6.312988695605508 L1.2533323356430368 -0.7530011521102283 L0.627905195293128 -0.7948354962555503 z"/>
<path fill="#dfb1e8" stroke="#dfb1e8" d="M-5.449794528138486e-15 6.257191201353636 L0.6279051952931279 6.271154351460181 L0.6279051952931279 -0.794835496255555 L-5.449794528138486e-15 -0.8087986463621001 z"/>
<path fill="#dfb1e8" stroke="#dfb1e8" d="M-0.6279051952931389 6.2711543514601775 L-5.449794528138487e-15 6.257191201353632 L-5.449794528138487e-15 -0.8087986463621045 L-0.6279051952931389 -0.7948354962555594 z"/>
<path fill="#dfb1e8" stroke="#dfb1e8" d="M-1.2533323356430477 6.312988695605507 L-0.627905195293139 6.271154351460184 L-0.627905195293139 -0.7948354962555507 L-1.2533323356430477 -0.7530011521102276 z"/>
<path fill="#dfb1e8" stroke="#dfb1e8" d="M-1.8738131458572513 6.382529132745555 L-1.2533323356430475 6.312988695605505 L-1.2533323356430475 -0.7530011521102397 L-1.8738131458572513 -0.683460714970189 z"/>
<path fill="#dfb1e8" stroke="#dfb1e8" d="M-2.4868988716485525 6.479501218544939 L-1.8738131458572516 6.382529132745546 L-1.8738131458572516 -0.6834607149701859 L-2.4868988716485525 -0.5864886291707925 z"/>
<path fill="#dfb1e8" stroke="#dfb1e8" d="M-5.358267949789969 7.358748926481513 L-4.817536741017157 7.1324627141397015 L-4.817536741017157 0.06647286642396706 L-5.358267949789969 0.2927590787657783 z"/>
<path fill="#dfb1e8" stroke="#dfb1e8" d="M-3.0901699437494794 6.603522248483356 L-2.4868988716485525 6.479501218544941 L-2.4868988716485525 -0.5864886291707875 L-3.0901699437494794 -0.46246759923237346 z"/>
<path fill="#dfb1e8" stroke="#dfb1e8" d="M-3.681245526846784 6.754102768215457 L-3.0901699437494794 6.603522248483367 L-3.0901699437494794 -0.4624675992323749 L-3.681245526846784 -0.31188707950028516 z"/>
<path fill="#dfb1e8" stroke="#dfb1e8" d="M-4.257792915650731 6.930648505223528 L-3.6812455268467836 6.75410276821545 L-3.6812455268467836 -0.3118870795002904 L-4.257792915650731 -0.13534134249221255 z"/>
<path fill="#dfb1e8" stroke="#dfb1e8" d="M-4.817536741017157 7.132462714139694 L-4.257792915650731 6.930648505223524 L-4.257792915650731 -0.13534134249221133 L-4.817536741017157 0.06647286642395868 z"/>
<path fill="#dfb1e8" stroke="#dfb1e8" d="M-5.877852522924734 7.608614093949192 L-5.358267949789969 7.358748926481516 L-5.358267949789969 0.29275907876577045 L-5.877852522924734 0.5426242462334459 z"/>
<path fill="#dfb1e8" stroke="#dfb1e8" d="M-6.374239897486904 7.881072112879281 L-5.877852522924739 7.60861409394919 L-5.877852522924738 0.5426242462334563 L-6.374239897486909 0.8150822651635415 z"/>
<path fill="#dfb1e8" stroke="#dfb1e8" d="M-6.845471059286895 8.175047715945276 L-6.374239897486902 7.881072112879278 L-6.3742398974869054 0.8150822651635387 L-6.845471059286893 1.1090578682295418 z"/>
<path fill="#dfb1e8" stroke="#dfb1e8" d="M-7.2896862742141195 8.489380715746577 L-6.845471059286894 8.17504771594528 L-6.845471059286896 1.1090578682295424 L-7.289686274214121 1.42339086803084 z"/>
<path fill="#dfb1e8" stroke="#dfb1e8" d="M-7.705132427757896 8.822830583538043 L-7.28968627421412 8.489380715746575 L-7.289686274214119 1.4233908680308434 L-7.7051324277579 1.7568407358223055 z"/>
<path fill="#dfb1e8" stroke="#dfb1e8" d="M-9.297764858882516 10.728431676265112 L-9.048270524660202 10.320458549365261 L-9.0482705246602 3.2544687016495275 L-9.297764858882518 3.662441828549377 z"/>
<path fill="#dfb1e8" stroke="#dfb1e8" d="M-9.048270524660198 10.320458549365263 L-8.763066800438644 9.924375862786176 L-8.76306680043864 2.8583860150704425 L-9.0482705246602 3.2544687016495266 z"/>
<path fill="#dfb1e8" stroke="#dfb1e8" d="M-8.76306680043864 9.924375862786178 L-8.443279255020158 9.541746773938813 L-8.443279255020155 2.47575692622308 L-8.763066800438642 2.858386015070442 z"/>
<path fill="#dfb1e8" stroke="#dfb1e8" d="M-8.443279255020155 9.541746773938815 L-8.09016994374948 9.174081345030254 L-8.09016994374948 2.1080914973145193 L-8.44327925502016 2.475756926223079 z"/>
<path fill="#dfb1e8" stroke="#dfb1e8" d="M-8.090169943749478 9.174081345030253 L-7.705132427757897 8.82283058353804 L-7.705132427757896 1.7568407358223066 L-8.090169943749476 2.1080914973145193 z"/>
<path fill="#dfb1e8" stroke="#dfb1e8" d="M-9.510565162951536 11.146685159939041 L-9.297764858882516 10.728431676265112 L-9.29776485888252 3.6624418285493765 L-9.51056516295154 4.080695312223306 z"/>
<path fill="#dfb1e8" stroke="#dfb1e8" d="M-9.685831611286313 11.573568344968836 L-9.510565162951538 11.146685159939041 L-9.510565162951538 4.080695312223306 L-9.685831611286313 4.507578497253101 z"/>
<path fill="#dfb1e8" stroke="#dfb1e8" d="M-9.82287250728689 12.007396518447553 L-9.685831611286313 11.573568344968836 L-9.685831611286313 4.507578497253101 L-9.822872507286887 4.941406670731818 z"/>
<path fill="#dfb1e8" stroke="#dfb1e8" d="M-9.921147013144779 12.446457558771717 L-9.822872507286888 12.007396518447553 L-9.822872507286888 4.941406670731818 L-9.921147013144779 5.3804677110559815 z"/>
<path fill="#dfb1e8" stroke="#dfb1e8" d="M-9.980267284282716 12.889018692603075 L-9.921147013144779 12.446457558771717 L-9.921147013144779 5.380467711055982 L-9.980267284282716 5.823028844887339 z"/>
<path fill="#dfb1e8" stroke="#dfb1e8" d="M-10 13.333333333333343 L-9.980267284282716 12.889018692603074 L-9.980267284282716 5.8230288448873395 L-10 6.267343485617608 z"/>
<path fill="#dfb1e8" stroke="#dfb1e8" d="M-9.980267284282712 13.77764797406361 L-9.999999999999998 13.333333333333345 L-9.999999999999998 6.267343485617608 L-9.980267284282712 6.711658126347877 z"/>
<path fill="#dfb1e8" stroke="#dfb1e8" d="M-9.921147013144775 14.220209107894968 L-9.980267284282712 13.777647974063612 L-9.980267284282712 6.711658126347876 L-9.921147013144775 7.154219260179232 z"/>
<path fill="#dfb1e8" stroke="#dfb1e8" d="M-9.822872507286883 14.65927014821913 L-9.921147013144775 14.220209107894966 L-9.921147013144775 7.154219260179232 L-9.822872507286883 7.5932803005033955 z"/>
<path fill="#dfb1e8" stroke="#dfb1e8" d="M-9.685831611286305 15.093098321697848 L-9.822872507286883 14.659270148219129 L-9.822872507286883 7.5932803005033955 L-9.685831611286307 8.027108473982112 z"/>
<path fill="#dfb1e8" stroke="#dfb1e8" d="M-9.51056516295153 15.51998150672764 L-9.685831611286307 15.09309832169785 L-9.685831611286307 8.027108473982114 L-9.510565162951531 8.453991659011907 z"/>
<path fill="#dfb1e8" stroke="#dfb1e8" d="M-9.297764858882507 15.938234990401574 L-9.51056516295153 15.519981506727643 L-9.510565162951531 8.453991659011907 L-9.297764858882507 8.872245142685838 z"/>
<path fill="#dfb1e8" stroke="#dfb1e8" d="M-9.048270524660184 16.346208117301423 L-9.297764858882505 15.938234990401572 L-9.297764858882505 8.872245142685838 L-9.048270524660188 9.280218269585687 z"/>
<path fill="#dfb1e8" stroke="#dfb1e8" d="M-8.090169943749462 17.492585321636426 L-8.443279255020135 17.124919892727867 L-8.44327925502014 10.058930045012135 L-8.09016994374946 10.426595473920692 z"/>
<path fill="#dfb1e8" stroke="#dfb1e8" d="M-8.763066800438624 16.742290803880508 L-9.048270524660186 16.346208117301423 L-9.048270524660186 9.280218269585687 L-8.763066800438626 9.676300956164772 z"/>
<path fill="#dfb1e8" stroke="#dfb1e8" d="M-8.44327925502014 17.124919892727867 L-8.763066800438628 16.742290803880508 L-8.763066800438624 9.676300956164772 L-8.44327925502014 10.058930045012135 z"/>
<path fill="#dfb1e8" stroke="#dfb1e8" d="M-7.705132427757878 17.84383608312864 L-8.09016994374946 17.492585321636426 L-8.090169943749462 10.426595473920694 L-7.70513242775788 10.777846235412907 z"/>
<path fill="#dfb1e8" stroke="#dfb1e8" d="M-7.2896862742141035 18.177285950920105 L-7.705132427757877 17.84383608312864 L-7.705132427757874 10.777846235412904 L-7.289686274214101 11.111296103204367 z"/>
<path fill="#dfb1e8" stroke="#dfb1e8" d="M-6.37423989748688 18.7855945537874 L-6.845471059286875 18.491618950721403 L-6.845471059286872 11.425629103005665 L-6.374239897486882 11.71960470607167 z"/>
<path fill="#dfb1e8" stroke="#dfb1e8" d="M-5.877852522924712 19.058052572717486 L-6.374239897486882 18.785594553787405 L-6.374239897486877 11.719604706071667 L-5.877852522924713 11.992062725001754 z"/>
<path fill="#dfb1e8" stroke="#dfb1e8" d="M-5.35826794978995 19.307917740185157 L-5.877852522924717 19.058052572717482 L-5.877852522924717 11.992062725001752 L-5.35826794978995 12.241927892469429 z"/>
<path fill="#dfb1e8" stroke="#dfb1e8" d="M-3.6812455268467605 19.91256389845122 L-4.2577929156507075 19.736018161443145 L-4.2577929156507075 12.670028313727403 L-3.6812455268467605 12.84657405073548 z"/>
<path fill="#dfb1e8" stroke="#dfb1e8" d="M-4.257792915650708 19.736018161443145 L-4.817536741017135 19.534203952526976 L-4.817536741017135 12.46821410481123 L-4.257792915650708 12.670028313727398 z"/>
<path fill="#dfb1e8" stroke="#dfb1e8" d="M-4.817536741017135 19.534203952526973 L-5.35826794978995 19.30791774018516 L-5.35826794978995 12.24192789246942 L-4.817536741017135 12.468214104811231 z"/>
<path fill="#dfb1e8" stroke="#dfb1e8" d="M-3.0901699437494536 20.063144418183295 L-3.68124552684676 19.912563898451207 L-3.68124552684676 12.846574050735484 L-3.0901699437494536 12.997154570467572 z"/>
<path fill="#dfb1e8" stroke="#dfb1e8" d="M-2.4868988716485263 20.187165448121718 L-3.0901699437494536 20.063144418183303 L-3.0901699437494536 12.997154570467572 L-2.4868988716485263 13.121175600405985 z"/>
<path fill="#dfb1e8" stroke="#dfb1e8" d="M-1.8738131458572234 20.284137533921108 L-2.4868988716485263 20.187165448121714 L-2.4868988716485263 13.121175600405984 L-1.8738131458572234 13.218147686205375 z"/>
<path fill="#dfb1e8" stroke="#dfb1e8" d="M-6.845471059286871 18.4916189507214 L-7.2896862742141 18.1772859509201 L-7.2896862742141035 11.11129610320437 L-6.8454710592868695 11.425629103005663 z"/>
<path fill="#dfb1e8" stroke="#dfb1e8" d="M-1.2533323356430188 20.35367797106116 L-1.8738131458572236 20.28413753392111 L-1.8738131458572236 13.218147686205372 L-1.2533323356430188 13.287688123345424 z"/>
<path fill="#dfb1e8" stroke="#dfb1e8" d="M-0.6279051952931092 20.395512315206474 L-1.2533323356430188 20.353677971061153 L-1.2533323356430188 13.287688123345422 L-0.6279051952931092 13.329522467490744 z"/>
<path fill="#dfb1e8" stroke="#dfb1e8" d="M1.2533323356430648 20.353677971061146 L0.6279051952931555 20.39551231520647 L0.6279051952931555 13.329522467490744 L1.2533323356430648 13.28768812334542 z"/>
<path fill="#dfb1e8" stroke="#dfb1e8" d="M2.486898871648567 20.187165448121707 L1.8738131458572649 20.2841375339211 L1.8738131458572649 13.218147686205374 L2.486898871648567 13.121175600405982 z"/>
<path fill="#dfb1e8" stroke="#dfb1e8" d="M3.0901699437494936 20.063144418183292 L2.486898871648567 20.187165448121707 L2.486898871648567 13.12117560040598 L3.0901699437494936 12.997154570467563 z"/>
<path fill="#dfb1e8" stroke="#dfb1e8" d="M3.681245526846799 19.912563898451197 L3.0901699437494936 20.06314441818329 L3.0901699437494936 12.99715457046756 L3.681245526846799 12.846574050735468 z"/>
<path fill="#dfb1e8" stroke="#dfb1e8" d="M1.8738131458572649 20.284137533921108 L1.2533323356430648 20.35367797106116 L1.2533323356430648 13.287688123345422 L1.8738131458572649 13.21814768620537 z"/>
<path fill="#dfb1e8" stroke="#dfb1e8" d="M4.257792915650747 19.73601816144313 L3.681245526846799 19.912563898451207 L3.681245526846799 12.846574050735471 L4.257792915650747 12.670028313727393 z"/>
<path fill="#dfb1e8" stroke="#dfb1e8" d="M4.8175367410171726 19.534203952526955 L4.257792915650747 19.736018161443123 L4.257792915650747 12.67002831372739 L4.8175367410171726 12.468214104811219 z"/>
<path fill="#dfb1e8" stroke="#dfb1e8" d="M5.8778525229247505 19.058052572717465 L5.358267949789986 19.307917740185143 L5.358267949789986 12.24192789246941 L5.8778525229247505 11.992062725001732 z"/>
<path fill="#dfb1e8" stroke="#dfb1e8" d="M5.358267949789986 19.307917740185147 L4.8175367410171726 19.53420395252696 L4.8175367410171726 12.468214104811226 L5.358267949789986 12.241927892469413 z"/>
<path fill="#dfb1e8" stroke="#dfb1e8" d="M2.0979813693355773e-14 20.409475465313026 L-0.6279051952931091 20.395512315206478 L-0.6279051952931091 13.32952246749075 L2.0979813693355773e-14 13.343485617597295 z"/>
<path fill="#dfb1e8" stroke="#dfb1e8" d="M0.6279051952931554 20.395512315206478 L2.0979813693355776e-14 20.409475465313022 L2.0979813693355776e-14 13.343485617597294 L0.6279051952931554 13.329522467490747 z"/>
<path fill="#dfb1e8" stroke="#dfb1e8" d="M6.374239897486911 18.785594553787384 L5.877852522924748 19.058052572717468 L5.877852522924744 11.99206272500173 L6.374239897486913 11.71960470607165 z"/>
<path fill="#dfb1e8" stroke="#dfb1e8" d="M6.8454710592869015 18.491618950721378 L6.374239897486915 18.785594553787387 L6.3742398974869126 11.71960470607165 L6.845471059286899 11.425629103005642 z"/>
<path fill="#dfb1e8" stroke="#dfb1e8" d="M7.28968627421413 18.17728595092008 L6.845471059286903 18.49161895072138 L6.8454710592869 11.425629103005644 L7.289686274214134 11.111296103204348 z"/>
<path fill="#dfb1e8" stroke="#dfb1e8" d="M7.705132427757908 17.84383608312862 L7.289686274214128 18.17728595092008 L7.289686274214129 11.111296103204346 L7.705132427757903 10.777846235412879 z"/>
<path fill="#dfb1e8" stroke="#dfb1e8" d="M8.763066800438644 16.74229080388048 L8.443279255020162 17.12491989272784 L8.443279255020162 10.058930045012104 L8.763066800438645 9.676300956164745 z"/>
<path fill="#dfb1e8" stroke="#dfb1e8" d="M8.443279255020164 17.12491989272784 L8.090169943749487 17.492585321636405 L8.090169943749485 10.426595473920669 L8.44327925502016 10.058930045012104 z"/>
<path fill="#dfb1e8" stroke="#dfb1e8" d="M8.090169943749483 17.492585321636405 L7.705132427757905 17.843836083128615 L7.705132427757908 10.777846235412882 L8.090169943749487 10.42659547392067 z"/>
<path fill="#dfb1e8" stroke="#dfb1e8" d="M9.048270524660206 16.34620811730139 L8.763066800438647 16.742290803880483 L8.763066800438647 9.676300956164747 L9.048270524660206 9.280218269585657 z"/>
<path fill="#dfb1e8" stroke="#dfb1e8" d="M9.297764858882521 15.938234990401545 L9.048270524660206 16.34620811730139 L9.048270524660207 9.280218269585658 L9.297764858882523 8.872245142685811 z"/>
<path fill="#dfb1e8" stroke="#dfb1e8" d="M9.510565162951544 15.51998150672761 L9.297764858882521 15.938234990401545 L9.297764858882523 8.87224514268581 L9.510565162951545 8.453991659011876 z"/>
<path fill="#dfb1e8" stroke="#dfb1e8" d="M9.685831611286316 15.09309832169782 L9.510565162951544 15.51998150672761 L9.510565162951545 8.453991659011875 L9.685831611286316 8.027108473982086 z"/>
<path fill="#dfb1e8" stroke="#dfb1e8" d="M9.822872507286892 14.659270148219097 L9.685831611286318 15.09309832169782 L9.685831611286316 8.027108473982084 L9.822872507286892 7.5932803005033636 z"/>
<path fill="#dfb1e8" stroke="#dfb1e8" d="M9.92114701314478 14.220209107894938 L9.822872507286892 14.659270148219099 L9.822872507286892 7.593280300503363 L9.92114701314478 7.154219260179203 z"/>
<path fill="#dfb1e8" stroke="#dfb1e8" d="M9.980267284282716 13.777647974063584 L9.92114701314478 14.220209107894938 L9.92114701314478 7.154219260179202 L9.980267284282716 6.7116581263478485 z"/>
<path fill="#dfb1e8" stroke="#dfb1e8" d="M9.999999999999998 13.333333333333334 L9.980267284282716 13.777647974063584 L9.980267284282716 6.7116581263478485 L9.999999999999998 6.2673434856176 z"/>
<path fill="#dfb1e8" stroke="#dfb1e8" d="M9.980267284282716 5.823028844887331 L10 6.2673434856176 L9.980267284282718 6.7116581263478485 L9.921147013144783 7.154219260179203 L9.822872507286894 7.5932803005033636 L9.685831611286318 8.027108473982086 L9.510565162951547 8.453991659011876 L9.297764858882525 8.87224514268581 L9.048270524660209 9.280218269585657 L8.763066800438649 9.676300956164745 L8.443279255020167 10.058930045012106 L8.090169943749489 10.426595473920669 L7.70513242775791 10.777846235412882 L7.289686274214135 11.111296103204346 L6.845471059286906 11.425629103005646 L6.374239897486918 11.719604706071651 L5.877852522924751 11.992062725001734 L5.358267949789987 12.24192789246941 L4.817536741017173 12.468214104811224 L4.2577929156507475 12.670028313727396 L3.6812455268467996 12.846574050735473 L3.090169943749494 12.997154570467565 L2.4868988716485676 13.121175600405982 L1.873813145857265 13.218147686205374 L1.253332335643065 13.287688123345426 L0.6279051952931556 13.329522467490749 L2.097981369335578e-14 13.343485617597294 L-0.6279051952931093 13.329522467490749 L-1.253332335643019 13.28768812334543 L-1.8738131458572238 13.218147686205379 L-2.4868988716485267 13.121175600405987 L-3.090169943749454 12.997154570467574 L-3.681245526846761 12.846574050735486 L-4.257792915650709 12.670028313727409 L-4.817536741017136 12.46821410481124 L-5.358267949789951 12.241927892469429 L-5.877852522924718 11.992062725001752 L-6.374239897486885 11.719604706071669 L-6.845471059286876 11.425629103005667 L-7.289686274214105 11.111296103204369 L-7.705132427757881 10.777846235412905 L-8.090169943749464 10.426595473920694 L-8.443279255020142 10.058930045012133 L-8.76306680043863 9.676300956164772 L-9.04827052466019 9.280218269585687 L-9.297764858882509 8.872245142685838 L-9.510565162951533 8.453991659011907 L-9.685831611286309 8.027108473982112 L-9.822872507286885 7.593280300503396 L-9.921147013144777 7.154219260179233 L-9.980267284282714 6.711658126347877 L-10 6.267343485617608 L-9.980267284282716 5.823028844887339 L-9.921147013144779 5.3804677110559815 L-9.822872507286888 4.941406670731818 L-9.685831611286313 4.5075784972531 L-9.510565162951538 4.080695312223307 L-9.297764858882516 3.6624418285493774 L-9.048270524660198 3.2544687016495275 L-8.76306680043864 2.8583860150704417 L-8.443279255020155 2.4757569262230796 L-8.090169943749476 2.1080914973145193 L-7.705132427757895 1.7568407358223068 L-7.289686274214118 1.4233908680308418 L-6.84547105928689 1.1090578682295433 L-6.3742398974869 0.8150822651635409 L-5.8778525229247345 0.5426242462334567 L-5.35826794978997 0.29275907876578117 L-4.8175367410171575 0.06647286642396978 L-4.2577929156507315 -0.13534134249220015 L-3.6812455268467845 -0.311887079500278 L-3.09016994374948 -0.4624675992323677 L-2.4868988716485534 -0.5864886291707815 L-1.8738131458572518 -0.683460714970175 L-1.253332335643048 -0.7530011521102257 L-0.6279051952931392 -0.7948354962555487 L-5.4497945281384876e-15 -0.8087986463620939 L0.6279051952931282 -0.7948354962555487 L1.253332335643037 -0.7530011521102269 L1.8738131458572411 -0.6834607149701762 L2.4868988716485427 -0.586488629170784 L3.0901699437494696 -0.4624675992323702 L3.681245526846775 -0.3118870795002805 L4.257792915650722 -0.13534134249220392 L4.817536741017149 0.06647286642396602 L5.358267949789961 0.29275907876577617 L5.8778525229247265 0.5426242462334528 L6.374239897486893 0.8150822651635371 L6.845471059286882 1.1090578682295391 L7.289686274214111 1.4233908680308363 L7.7051324277578885 1.756840735822301 L8.090169943749471 2.1080914973145144 L8.443279255020148 2.4757569262230734 L8.763066800438633 2.8583860150704345 L9.048270524660193 3.2544687016495204 L9.297764858882513 3.66244182854937 L9.510565162951535 4.080695312223301 L9.68583161128631 4.5075784972530935 L9.822872507286887 4.941406670731811 L9.921147013144777 5.3804677110559735 z"/>
<path fill="#dfb1e8" stroke="#dfb1e8" d="M10 13.333333333333336 L9.980267284282716 12.889018692603067 L9.921147013144777 12.44645755877171 L9.822872507286887 12.007396518447546 L9.68583161128631 11.573568344968828 L9.510565162951535 11.146685159939036 L9.297764858882513 10.728431676265103 L9.048270524660193 10.320458549365256 L8.763066800438633 9.924375862786171 L8.443279255020148 9.541746773938808 L8.090169943749471 9.174081345030247 L7.7051324277578885 8.822830583538035 L7.289686274214111 8.48938071574657 L6.845471059286882 8.175047715945274 L6.374239897486893 7.881072112879273 L5.8778525229247265 7.608614093949188 L5.358267949789961 7.358748926481511 L4.817536741017149 7.132462714139701 L4.257792915650722 6.930648505223531 L3.681245526846775 6.754102768215455 L3.0901699437494696 6.603522248483364 L2.4868988716485427 6.479501218544951 L1.8738131458572411 6.382529132745558 L1.253332335643037 6.312988695605508 L0.6279051952931282 6.2711543514601855 L-5.4497945281384876e-15 6.257191201353641 L-0.6279051952931392 6.2711543514601855 L-1.253332335643048 6.312988695605509 L-1.8738131458572518 6.38252913274556 L-2.4868988716485534 6.479501218544953 L-3.09016994374948 6.603522248483367 L-3.6812455268467845 6.754102768215457 L-4.2577929156507315 6.930648505223535 L-4.8175367410171575 7.132462714139705 L-5.35826794978997 7.358748926481517 L-5.8778525229247345 7.608614093949192 L-6.3742398974869 7.881072112879276 L-6.84547105928689 8.175047715945277 L-7.289686274214118 8.489380715746577 L-7.705132427757895 8.822830583538043 L-8.090169943749476 9.174081345030254 L-8.443279255020155 9.541746773938815 L-8.76306680043864 9.924375862786176 L-9.048270524660198 10.320458549365261 L-9.297764858882516 10.728431676265112 L-9.510565162951538 11.146685159939043 L-9.685831611286313 11.573568344968836 L-9.822872507286888 12.007396518447553 L-9.921147013144779 12.446457558771716 L-9.980267284282716 12.889018692603074 L-10 13.333333333333343 L-9.980267284282714 13.777647974063612 L-9.921147013144777 14.220209107894968 L-9.822872507286885 14.65927014821913 L-9.685831611286309 15.093098321697848 L-9.510565162951533 15.519981506727643 L-9.297764858882509 15.938234990401572 L-9.04827052466019 16.346208117301423 L-8.76306680043863 16.742290803880508 L-8.443279255020142 17.124919892727867 L-8.090169943749464 17.492585321636426 L-7.705132427757881 17.843836083128643 L-7.289686274214105 18.1772859509201 L-6.845471059286876 18.4916189507214 L-6.374239897486885 18.785594553787405 L-5.877852522924718 19.058052572717486 L-5.358267949789951 19.30791774018516 L-4.817536741017136 19.534203952526973 L-4.257792915650709 19.736018161443145 L-3.681245526846761 19.91256389845122 L-3.090169943749454 20.063144418183306 L-2.4868988716485267 20.187165448121725 L-1.8738131458572238 20.284137533921115 L-1.253332335643019 20.353677971061163 L-0.6279051952931093 20.395512315206485 L2.097981369335578e-14 20.40947546531303 L0.6279051952931556 20.39551231520648 L1.253332335643065 20.35367797106116 L1.873813145857265 20.284137533921108 L2.4868988716485676 20.187165448121714 L3.090169943749494 20.0631444181833 L3.6812455268467996 19.912563898451207 L4.2577929156507475 19.73601816144313 L4.817536741017173 19.53420395252696 L5.358267949789987 19.307917740185147 L5.877852522924751 19.058052572717468 L6.374239897486918 18.785594553787384 L6.845471059286906 18.49161895072138 L7.289686274214135 18.17728595092008 L7.70513242775791 17.843836083128615 L8.090169943749489 17.492585321636405 L8.443279255020167 17.124919892727842 L8.763066800438649 16.742290803880483 L9.048270524660209 16.34620811730139 L9.297764858882525 15.938234990401545 L9.510565162951547 15.519981506727612 L9.685831611286318 15.093098321697822 L9.822872507286894 14.659270148219099 L9.921147013144783 14.220209107894938 L9.980267284282718 13.777647974063584 M-2.874999999999999 9.809664996260153 L-2.042033359469874 9.809664996260153 L2.875 9.809664996260153 L5.75 13.333333333333336 L2.8749999999999964 16.857001670406518 L-1.1006030730619516 16.857001670406515 L-2.8750000000000018 16.857001670406515 L-5.75 13.333333333333334 z"/>
<path fill="#e2c66c" stroke="#e2c66c" d="M2.8750000000000004 6.276670072402288 L2.8750000000000018 9.809664996260155 L5.75 13.333333333333336 L5.750000000000003 9.800338409475467 z"/>
<path fill="#e2c66c" stroke="#e2c66c" d="M-5.750000000000001 9.800338409475467 L-5.750000000000002 13.333333333333334 L-2.875000000000002 9.809664996260153 L-2.875000000000001 6.276670072402286 z"/>
<path fill="#e2c66c" stroke="#e2c66c" d="M-2.875000000000001 13.32400674654865 L-2.875 16.857001670406515 L-5.749999999999997 13.333333333333334 L-5.749999999999998 9.800338409475467 z"/>
<path fill="#e2c66c" stroke="#e2c66c" d="M-2.8749999999999987 6.276670072402282 L-2.8749999999999987 9.809664996260146 L2.8749999999999996 9.809664996260148 L2.8749999999999996 6.276670072402283 z"/>
<path fill="#e2c66c" stroke="#e2c66c" d="M2.874999999999996 13.324006746548646 L2.874999999999996 16.857001670406518 L-2.8750000000000013 16.857001670406515 L-2.8750000000000013 13.324006746548642 z"/>
<path fill="#e2c66c" stroke="#e2c66c" d="M5.749999999999998 9.800338409475469 L5.749999999999999 13.333333333333336 L2.874999999999995 16.857001670406518 L2.8749999999999947 13.324006746548651 z"/>
<path fill="#e2c66c" stroke="#e2c66c" d="M2.875 6.276670072402287 L5.75 9.800338409475467 L2.8749999999999964 13.324006746548651 L-2.8750000000000018 13.32400674654865 L-5.75 9.800338409475467 L-2.874999999999999 6.276670072402286 z"/>
<path fill="#e2c66c" stroke="#e2c66c" d="M5.75 13.333333333333336 L2.875 9.809664996260155 L-2.874999999999999 9.809664996260153 L-5.75 13.333333333333334 L-2.8750000000000018 16.857001670406515 L2.8749999999999964 16.857001670406518 z"/>
</svg>