<?xml version="1.0" encoding="UTF-8"?>
<!-- Generated by jsxcad -->
<!DOCTYPE svg PUBLIC "-//W3C//DTD SVG 1.1 Tiny//EN" "http://www.w3.org/Graphics/SVG/1.1/DTD/svg11-tiny.dtd">
<svg baseProfile="tiny" height="20.000000000000014mm" width="20.000000000000014mm" viewBox="-10.000000000000007 -10.000000000000007 20.000000000000014 20.000000000000014" version="1.1" stroke="black" stroke-width=".1" fill="none" xmlns="http://www.w3.org/2000/svg">
<path fill="#dfb1e8" stroke="#dfb1e8" d="M1.2533323356430446 -9.921147013144777 L1.2533323356430446 -9.921147013144777 L0.6279051952931352 -9.980267284282716 L0.6279051952931352 -9.980267284282716 z"/>
<path fill="#dfb1e8" stroke="#dfb1e8" d="M0.6279051952931352 -9.980267284282716 L0.6279051952931352 -9.980267284282716 L6.123233995736765e-16 -10 L6.123233995736765e-16 -10 z"/>
<path fill="#dfb1e8" stroke="#dfb1e8" d="M2.4868988716485494 -9.68583161128631 L2.4868988716485494 -9.68583161128631 L1.8738131458572491 -9.822872507286887 L1.8738131458572491 -9.822872507286887 z"/>
<path fill="#dfb1e8" stroke="#dfb1e8" d="M1.873813145857249 -9.822872507286887 L1.873813145857249 -9.822872507286887 L1.2533323356430446 -9.921147013144777 L1.2533323356430446 -9.921147013144777 z"/>
<path fill="#dfb1e8" stroke="#dfb1e8" d="M3.0901699437494763 -9.510565162951535 L3.0901699437494763 -9.510565162951535 L2.4868988716485494 -9.68583161128631 L2.4868988716485494 -9.68583161128631 z"/>
<path fill="#dfb1e8" stroke="#dfb1e8" d="M4.25779291565073 -9.048270524660193 L4.25779291565073 -9.048270524660193 L3.6812455268467827 -9.297764858882513 L3.6812455268467827 -9.297764858882513 z"/>
<path fill="#dfb1e8" stroke="#dfb1e8" d="M3.6812455268467827 -9.297764858882513 L3.6812455268467827 -9.297764858882513 L3.090169943749476 -9.510565162951535 L3.090169943749476 -9.510565162951535 z"/>
<path fill="#dfb1e8" stroke="#dfb1e8" d="M4.817536741017157 -8.763066800438633 L4.817536741017157 -8.763066800438633 L4.25779291565073 -9.048270524660193 L4.25779291565073 -9.048270524660193 z"/>
<path fill="#dfb1e8" stroke="#dfb1e8" d="M5.35826794978997 -8.443279255020148 L5.35826794978997 -8.443279255020148 L4.817536741017157 -8.763066800438633 L4.817536741017157 -8.763066800438633 z"/>
<path fill="#dfb1e8" stroke="#dfb1e8" d="M5.877852522924734 -8.090169943749471 L5.877852522924734 -8.090169943749471 L5.35826794978997 -8.443279255020148 L5.35826794978997 -8.443279255020148 z"/>
<path fill="#dfb1e8" stroke="#dfb1e8" d="M7.2896862742141195 -6.845471059286881 L7.2896862742141195 -6.845471059286881 L6.845471059286892 -7.28968627421411 L6.845471059286892 -7.28968627421411 z"/>
<path fill="#dfb1e8" stroke="#dfb1e8" d="M6.374239897486901 -7.7051324277578885 L6.374239897486901 -7.7051324277578885 L5.8778525229247345 -8.090169943749471 L5.8778525229247345 -8.090169943749471 z"/>
<path fill="#dfb1e8" stroke="#dfb1e8" d="M6.845471059286891 -7.289686274214111 L6.845471059286891 -7.289686274214111 L6.374239897486901 -7.7051324277578885 L6.374239897486901 -7.7051324277578885 z"/>
<path fill="#dfb1e8" stroke="#dfb1e8" d="M8.763066800438638 -4.817536741017148 L8.763066800438638 -4.817536741017148 L8.443279255020155 -5.35826794978996 L8.443279255020155 -5.35826794978996 z"/>
<path fill="#dfb1e8" stroke="#dfb1e8" d="M8.443279255020155 -5.358267949789959 L8.443279255020155 -5.358267949789959 L8.090169943749478 -5.877852522924726 L8.090169943749478 -5.877852522924726 z"/>
<path fill="#dfb1e8" stroke="#dfb1e8" d="M8.090169943749478 -5.877852522924726 L8.090169943749478 -5.877852522924726 L7.705132427757896 -6.374239897486892 L7.705132427757896 -6.374239897486892 z"/>
<path fill="#dfb1e8" stroke="#dfb1e8" d="M9.297764858882516 -3.6812455268467748 L9.297764858882516 -3.6812455268467748 L9.048270524660198 -4.257792915650721 L9.048270524660198 -4.257792915650721 z"/>
<path fill="#dfb1e8" stroke="#dfb1e8" d="M9.048270524660198 -4.257792915650721 L9.048270524660198 -4.257792915650721 L8.763066800438638 -4.817536741017148 L8.763066800438638 -4.817536741017148 z"/>
<path fill="#dfb1e8" stroke="#dfb1e8" d="M9.685831611286313 -2.4868988716485423 L9.685831611286313 -2.4868988716485423 L9.510565162951538 -3.0901699437494687 L9.510565162951538 -3.0901699437494687 z"/>
<path fill="#dfb1e8" stroke="#dfb1e8" d="M9.510565162951538 -3.090169943749469 L9.510565162951538 -3.090169943749469 L9.297764858882516 -3.6812455268467748 L9.297764858882516 -3.6812455268467748 z"/>
<path fill="#dfb1e8" stroke="#dfb1e8" d="M9.921147013144779 -1.2533323356430368 L9.921147013144779 -1.2533323356430368 L9.822872507286888 -1.8738131458572407 L9.822872507286888 -1.8738131458572407 z"/>
<path fill="#dfb1e8" stroke="#dfb1e8" d="M9.822872507286888 -1.873813145857241 L9.822872507286888 -1.873813145857241 L9.685831611286313 -2.4868988716485423 L9.685831611286313 -2.4868988716485423 z"/>
<path fill="#dfb1e8" stroke="#dfb1e8" d="M7.705132427757896 -6.374239897486892 L7.705132427757896 -6.374239897486892 L7.2896862742141195 -6.845471059286881 L7.2896862742141195 -6.845471059286881 z"/>
<path fill="#dfb1e8" stroke="#dfb1e8" d="M9.980267284282716 -0.627905195293128 L9.980267284282716 -0.627905195293128 L9.921147013144779 -1.2533323356430368 L9.921147013144779 -1.2533323356430368 z"/>
<path fill="#dfb1e8" stroke="#dfb1e8" d="M9.999999999999998 5.449794528138487e-15 L9.999999999999998 5.449794528138487e-15 L9.980267284282716 -0.627905195293128 L9.980267284282716 -0.627905195293128 z"/>
<path fill="#dfb1e8" stroke="#dfb1e8" d="M9.921147013144777 1.2533323356430477 L9.921147013144777 1.2533323356430477 L9.980267284282716 0.627905195293139 L9.980267284282716 0.627905195293139 z"/>
<path fill="#dfb1e8" stroke="#dfb1e8" d="M9.980267284282716 0.627905195293139 L9.980267284282716 0.627905195293139 L10 5.449794528138487e-15 L10 5.449794528138487e-15 z"/>
<path fill="#dfb1e8" stroke="#dfb1e8" d="M9.685831611286309 2.486898871648553 L9.685831611286309 2.486898871648553 L9.822872507286887 1.8738131458572513 L9.822872507286887 1.8738131458572513 z"/>
<path fill="#dfb1e8" stroke="#dfb1e8" d="M9.822872507286887 1.8738131458572516 L9.822872507286887 1.8738131458572516 L9.921147013144777 1.2533323356430477 L9.921147013144777 1.2533323356430477 z"/>
<path fill="#dfb1e8" stroke="#dfb1e8" d="M8.443279255020148 5.358267949789969 L8.443279255020148 5.358267949789969 L8.763066800438633 4.817536741017157 L8.763066800438633 4.817536741017157 z"/>
<path fill="#dfb1e8" stroke="#dfb1e8" d="M9.510565162951535 3.0901699437494794 L9.510565162951535 3.0901699437494794 L9.685831611286309 2.486898871648553 L9.685831611286309 2.486898871648553 z"/>
<path fill="#dfb1e8" stroke="#dfb1e8" d="M9.297764858882513 3.6812455268467836 L9.297764858882513 3.6812455268467836 L9.510565162951535 3.090169943749479 L9.510565162951535 3.090169943749479 z"/>
<path fill="#dfb1e8" stroke="#dfb1e8" d="M9.048270524660193 4.257792915650731 L9.048270524660193 4.257792915650731 L9.297764858882513 3.6812455268467836 L9.297764858882513 3.6812455268467836 z"/>
<path fill="#dfb1e8" stroke="#dfb1e8" d="M8.763066800438633 4.817536741017157 L8.763066800438633 4.817536741017157 L9.048270524660193 4.257792915650731 L9.048270524660193 4.257792915650731 z"/>
<path fill="#dfb1e8" stroke="#dfb1e8" d="M8.090169943749473 5.877852522924734 L8.090169943749473 5.877852522924734 L8.443279255020148 5.358267949789969 L8.443279255020148 5.358267949789969 z"/>
<path fill="#dfb1e8" stroke="#dfb1e8" d="M7.70513242775789 6.374239897486899 L7.70513242775789 6.374239897486899 L8.090169943749473 5.877852522924734 L8.090169943749473 5.877852522924734 z"/>
<path fill="#dfb1e8" stroke="#dfb1e8" d="M6.845471059286882 7.289686274214119 L6.845471059286882 7.289686274214119 L7.289686274214112 6.84547105928689 L7.289686274214112 6.84547105928689 z"/>
<path fill="#dfb1e8" stroke="#dfb1e8" d="M7.289686274214113 6.845471059286889 L7.289686274214113 6.845471059286889 L7.70513242775789 6.374239897486899 L7.70513242775789 6.374239897486899 z"/>
<path fill="#dfb1e8" stroke="#dfb1e8" d="M6.374239897486893 7.705132427757895 L6.374239897486893 7.705132427757895 L6.845471059286883 7.289686274214118 L6.845471059286883 7.289686274214118 z"/>
<path fill="#dfb1e8" stroke="#dfb1e8" d="M3.6812455268467716 9.297764858882516 L3.6812455268467716 9.297764858882516 L4.25779291565072 9.048270524660198 L4.25779291565072 9.048270524660198 z"/>
<path fill="#dfb1e8" stroke="#dfb1e8" d="M4.25779291565072 9.048270524660198 L4.25779291565072 9.048270524660198 L4.817536741017147 8.76306680043864 L4.817536741017147 8.76306680043864 z"/>
<path fill="#dfb1e8" stroke="#dfb1e8" d="M5.358267949789961 8.443279255020155 L5.358267949789961 8.443279255020155 L5.877852522924727 8.090169943749476 L5.877852522924727 8.090169943749476 z"/>
<path fill="#dfb1e8" stroke="#dfb1e8" d="M4.817536741017147 8.76306680043864 L4.817536741017147 8.76306680043864 L5.358267949789961 8.443279255020155 L5.358267949789961 8.443279255020155 z"/>
<path fill="#dfb1e8" stroke="#dfb1e8" d="M5.8778525229247265 8.090169943749476 L5.8778525229247265 8.090169943749476 L6.374239897486893 7.705132427757895 L6.374239897486893 7.705132427757895 z"/>
<path fill="#dfb1e8" stroke="#dfb1e8" d="M2.4868988716485405 9.685831611286313 L2.4868988716485405 9.685831611286313 L3.090169943749468 9.510565162951538 L3.090169943749468 9.510565162951538 z"/>
<path fill="#dfb1e8" stroke="#dfb1e8" d="M3.0901699437494674 9.510565162951538 L3.0901699437494674 9.510565162951538 L3.6812455268467716 9.297764858882516 L3.6812455268467716 9.297764858882516 z"/>
<path fill="#dfb1e8" stroke="#dfb1e8" d="M1.2533323356430335 9.921147013144779 L1.2533323356430335 9.921147013144779 L1.8738131458572382 9.822872507286888 L1.8738131458572382 9.822872507286888 z"/>
<path fill="#dfb1e8" stroke="#dfb1e8" d="M1.8738131458572382 9.822872507286888 L1.8738131458572382 9.822872507286888 L2.4868988716485405 9.685831611286313 L2.4868988716485405 9.685831611286313 z"/>
<path fill="#dfb1e8" stroke="#dfb1e8" d="M0.627905195293124 9.980267284282716 L0.627905195293124 9.980267284282716 L1.2533323356430335 9.921147013144779 L1.2533323356430335 9.921147013144779 z"/>
<path fill="#dfb1e8" stroke="#dfb1e8" d="M-0.627905195293145 9.980267284282714 L-0.627905195293145 9.980267284282714 L-1.0489906846677888e-14 10 L-1.0489906846677888e-14 10 z"/>
<path fill="#dfb1e8" stroke="#dfb1e8" d="M-1.0489906846677888e-14 9.999999999999998 L-1.0489906846677888e-14 9.999999999999998 L0.627905195293124 9.980267284282716 L0.627905195293124 9.980267284282716 z"/>
<path fill="#dfb1e8" stroke="#dfb1e8" d="M-1.2533323356430521 9.921147013144777 L-1.2533323356430521 9.921147013144777 L-0.627905195293145 9.980267284282714 L-0.627905195293145 9.980267284282714 z"/>
<path fill="#dfb1e8" stroke="#dfb1e8" d="M-1.873813145857257 9.822872507286885 L-1.873813145857257 9.822872507286885 L-1.2533323356430521 9.921147013144777 L-1.2533323356430521 9.921147013144777 z"/>
<path fill="#dfb1e8" stroke="#dfb1e8" d="M-2.4868988716485587 9.685831611286309 L-2.4868988716485587 9.685831611286309 L-1.873813145857257 9.822872507286885 L-1.873813145857257 9.822872507286885 z"/>
<path fill="#dfb1e8" stroke="#dfb1e8" d="M-3.681245526846791 9.297764858882509 L-3.681245526846791 9.297764858882509 L-3.0901699437494856 9.510565162951533 L-3.0901699437494856 9.510565162951533 z"/>
<path fill="#dfb1e8" stroke="#dfb1e8" d="M-3.0901699437494856 9.510565162951533 L-3.0901699437494856 9.510565162951533 L-2.4868988716485587 9.685831611286309 L-2.4868988716485587 9.685831611286309 z"/>
<path fill="#dfb1e8" stroke="#dfb1e8" d="M-4.257792915650739 9.04827052466019 L-4.257792915650739 9.04827052466019 L-3.6812455268467916 9.297764858882509 L-3.6812455268467916 9.297764858882509 z"/>
<path fill="#dfb1e8" stroke="#dfb1e8" d="M-5.877852522924743 8.090169943749464 L-5.877852522924743 8.090169943749464 L-5.358267949789978 8.443279255020142 L-5.358267949789978 8.443279255020142 z"/>
<path fill="#dfb1e8" stroke="#dfb1e8" d="M-4.8175367410171654 8.76306680043863 L-4.8175367410171654 8.76306680043863 L-4.257792915650739 9.04827052466019 L-4.257792915650739 9.04827052466019 z"/>
<path fill="#dfb1e8" stroke="#dfb1e8" d="M-5.358267949789979 8.443279255020142 L-5.358267949789979 8.443279255020142 L-4.8175367410171654 8.76306680043863 L-4.8175367410171654 8.76306680043863 z"/>
<path fill="#dfb1e8" stroke="#dfb1e8" d="M-6.845471059286896 7.289686274214105 L-6.845471059286896 7.289686274214105 L-6.37423989748691 7.705132427757881 L-6.37423989748691 7.705132427757881 z"/>
<path fill="#dfb1e8" stroke="#dfb1e8" d="M-6.37423989748691 7.705132427757881 L-6.37423989748691 7.705132427757881 L-5.8778525229247425 8.090169943749464 L-5.8778525229247425 8.090169943749464 z"/>
<path fill="#dfb1e8" stroke="#dfb1e8" d="M-7.705132427757903 6.374239897486884 L-7.705132427757903 6.374239897486884 L-7.289686274214126 6.845471059286875 L-7.289686274214126 6.845471059286875 z"/>
<path fill="#dfb1e8" stroke="#dfb1e8" d="M-8.44327925502016 5.35826794978995 L-8.44327925502016 5.35826794978995 L-8.090169943749485 5.877852522924716 L-8.090169943749485 5.877852522924716 z"/>
<path fill="#dfb1e8" stroke="#dfb1e8" d="M-8.090169943749485 5.877852522924717 L-8.090169943749485 5.877852522924717 L-7.705132427757903 6.374239897486884 L-7.705132427757903 6.374239897486884 z"/>
<path fill="#dfb1e8" stroke="#dfb1e8" d="M-9.297764858882521 3.6812455268467605 L-9.297764858882521 3.6812455268467605 L-9.048270524660204 4.257792915650708 L-9.048270524660204 4.257792915650708 z"/>
<path fill="#dfb1e8" stroke="#dfb1e8" d="M-8.763066800438645 4.817536741017135 L-8.763066800438645 4.817536741017135 L-8.44327925502016 5.35826794978995 L-8.44327925502016 5.35826794978995 z"/>
<path fill="#dfb1e8" stroke="#dfb1e8" d="M-9.048270524660204 4.257792915650708 L-9.048270524660204 4.257792915650708 L-8.763066800438645 4.817536741017135 L-8.763066800438645 4.817536741017135 z"/>
<path fill="#dfb1e8" stroke="#dfb1e8" d="M-9.510565162951542 3.090169943749453 L-9.510565162951542 3.090169943749453 L-9.297764858882521 3.6812455268467605 L-9.297764858882521 3.6812455268467605 z"/>
<path fill="#dfb1e8" stroke="#dfb1e8" d="M-9.82287250728689 1.8738131458572236 L-9.82287250728689 1.8738131458572236 L-9.685831611286316 2.4868988716485263 L-9.685831611286316 2.4868988716485263 z"/>
<path fill="#dfb1e8" stroke="#dfb1e8" d="M-9.685831611286316 2.4868988716485263 L-9.685831611286316 2.4868988716485263 L-9.510565162951542 3.0901699437494536 L-9.510565162951542 3.0901699437494536 z"/>
<path fill="#dfb1e8" stroke="#dfb1e8" d="M-7.289686274214126 6.845471059286875 L-7.289686274214126 6.845471059286875 L-6.845471059286897 7.289686274214104 L-6.845471059286897 7.289686274214104 z"/>
<path fill="#dfb1e8" stroke="#dfb1e8" d="M-9.980267284282716 0.6279051952931092 L-9.980267284282716 0.6279051952931092 L-9.92114701314478 1.2533323356430188 L-9.92114701314478 1.2533323356430188 z"/>
<path fill="#dfb1e8" stroke="#dfb1e8" d="M-9.92114701314478 1.2533323356430188 L-9.92114701314478 1.2533323356430188 L-9.82287250728689 1.8738131458572236 L-9.82287250728689 1.8738131458572236 z"/>
<path fill="#dfb1e8" stroke="#dfb1e8" d="M-9.921147013144775 -1.2533323356430648 L-9.921147013144775 -1.2533323356430648 L-9.980267284282714 -0.6279051952931555 L-9.980267284282714 -0.6279051952931555 z"/>
<path fill="#dfb1e8" stroke="#dfb1e8" d="M-9.51056516295153 -3.090169943749493 L-9.51056516295153 -3.090169943749493 L-9.685831611286307 -2.486898871648567 L-9.685831611286307 -2.486898871648567 z"/>
<path fill="#dfb1e8" stroke="#dfb1e8" d="M-9.685831611286307 -2.486898871648567 L-9.685831611286307 -2.486898871648567 L-9.822872507286883 -1.8738131458572647 L-9.822872507286883 -1.8738131458572647 z"/>
<path fill="#dfb1e8" stroke="#dfb1e8" d="M-9.297764858882505 -3.681245526846799 L-9.297764858882505 -3.681245526846799 L-9.51056516295153 -3.0901699437494936 L-9.51056516295153 -3.0901699437494936 z"/>
<path fill="#dfb1e8" stroke="#dfb1e8" d="M-9.822872507286883 -1.8738131458572649 L-9.822872507286883 -1.8738131458572649 L-9.921147013144775 -1.2533323356430648 L-9.921147013144775 -1.2533323356430648 z"/>
<path fill="#dfb1e8" stroke="#dfb1e8" d="M-8.763066800438624 -4.8175367410171726 L-8.763066800438624 -4.8175367410171726 L-9.048270524660186 -4.257792915650747 L-9.048270524660186 -4.257792915650747 z"/>
<path fill="#dfb1e8" stroke="#dfb1e8" d="M-9.048270524660186 -4.257792915650747 L-9.048270524660186 -4.257792915650747 L-9.297764858882505 -3.681245526846799 L-9.297764858882505 -3.681245526846799 z"/>
<path fill="#dfb1e8" stroke="#dfb1e8" d="M-8.090169943749459 -5.8778525229247505 L-8.090169943749459 -5.8778525229247505 L-8.443279255020137 -5.358267949789986 L-8.443279255020137 -5.358267949789986 z"/>
<path fill="#dfb1e8" stroke="#dfb1e8" d="M-8.443279255020137 -5.358267949789986 L-8.443279255020137 -5.358267949789986 L-8.763066800438624 -4.8175367410171726 L-8.763066800438624 -4.8175367410171726 z"/>
<path fill="#dfb1e8" stroke="#dfb1e8" d="M-9.999999999999998 -2.0979813693355776e-14 L-9.999999999999998 -2.0979813693355776e-14 L-9.980267284282716 0.6279051952931092 L-9.980267284282716 0.6279051952931092 z"/>
<path fill="#dfb1e8" stroke="#dfb1e8" d="M-9.980267284282714 -0.6279051952931555 L-9.980267284282714 -0.6279051952931555 L-10 -2.0979813693355776e-14 L-10 -2.0979813693355776e-14 z"/>
<path fill="#dfb1e8" stroke="#dfb1e8" d="M-7.289686274214096 -6.845471059286905 L-7.289686274214096 -6.845471059286905 L-7.705132427757876 -6.374239897486917 L-7.705132427757876 -6.374239897486917 z"/>
<path fill="#dfb1e8" stroke="#dfb1e8" d="M-7.705132427757876 -6.374239897486916 L-7.705132427757876 -6.374239897486916 L-8.090169943749459 -5.8778525229247505 L-8.090169943749459 -5.8778525229247505 z"/>
<path fill="#dfb1e8" stroke="#dfb1e8" d="M-6.374239897486874 -7.70513242775791 L-6.374239897486874 -7.70513242775791 L-6.845471059286865 -7.289686274214135 L-6.845471059286865 -7.289686274214135 z"/>
<path fill="#dfb1e8" stroke="#dfb1e8" d="M-6.845471059286865 -7.289686274214135 L-6.845471059286865 -7.289686274214135 L-7.2896862742140955 -6.845471059286906 L-7.2896862742140955 -6.845471059286906 z"/>
<path fill="#dfb1e8" stroke="#dfb1e8" d="M-4.817536741017128 -8.763066800438649 L-4.817536741017128 -8.763066800438649 L-5.35826794978994 -8.443279255020167 L-5.35826794978994 -8.443279255020167 z"/>
<path fill="#dfb1e8" stroke="#dfb1e8" d="M-5.8778525229247105 -8.090169943749489 L-5.8778525229247105 -8.090169943749489 L-6.374239897486874 -7.70513242775791 L-6.374239897486874 -7.70513242775791 z"/>
<path fill="#dfb1e8" stroke="#dfb1e8" d="M-5.35826794978994 -8.443279255020167 L-5.35826794978994 -8.443279255020167 L-5.8778525229247105 -8.090169943749489 L-5.8778525229247105 -8.090169943749489 z"/>
<path fill="#dfb1e8" stroke="#dfb1e8" d="M-4.257792915650697 -9.048270524660209 L-4.257792915650697 -9.048270524660209 L-4.817536741017128 -8.763066800438649 L-4.817536741017128 -8.763066800438649 z"/>
<path fill="#dfb1e8" stroke="#dfb1e8" d="M-3.6812455268467525 -9.297764858882525 L-3.6812455268467525 -9.297764858882525 L-4.257792915650697 -9.048270524660209 L-4.257792915650697 -9.048270524660209 z"/>
<path fill="#dfb1e8" stroke="#dfb1e8" d="M-2.4868988716485183 -9.685831611286318 L-2.4868988716485183 -9.685831611286318 L-3.090169943749442 -9.510565162951547 L-3.090169943749442 -9.510565162951547 z"/>
<path fill="#dfb1e8" stroke="#dfb1e8" d="M-3.0901699437494417 -9.510565162951547 L-3.0901699437494417 -9.510565162951547 L-3.6812455268467525 -9.297764858882525 L-3.6812455268467525 -9.297764858882525 z"/>
<path fill="#dfb1e8" stroke="#dfb1e8" d="M-1.2533323356430104 -9.921147013144783 L-1.2533323356430104 -9.921147013144783 L-1.8738131458572111 -9.822872507286894 L-1.8738131458572111 -9.822872507286894 z"/>
<path fill="#dfb1e8" stroke="#dfb1e8" d="M-1.8738131458572111 -9.822872507286894 L-1.8738131458572111 -9.822872507286894 L-2.4868988716485183 -9.685831611286318 L-2.4868988716485183 -9.685831611286318 z"/>
<path fill="#dfb1e8" stroke="#dfb1e8" d="M-0.6279051952931053 -9.980267284282718 L-0.6279051952931053 -9.980267284282718 L-1.2533323356430104 -9.921147013144783 L-1.2533323356430104 -9.921147013144783 z"/>
<path fill="#dfb1e8" stroke="#dfb1e8" d="M6.123233995736765e-16 -9.999999999999998 L6.123233995736765e-16 -9.999999999999998 L-0.6279051952931053 -9.980267284282718 L-0.6279051952931053 -9.980267284282718 z"/>
<path fill="#dfb1e8" stroke="#dfb1e8" d="M1.2533323356430448 -9.921147013144775 L0.6279051952931353 -9.980267284282714 L6.123233995736766e-16 -9.999999999999998 L-0.6279051952931054 -9.980267284282716 L-1.2533323356430106 -9.92114701314478 L-1.8738131458572114 -9.822872507286892 L-2.4868988716485187 -9.685831611286316 L-3.0901699437494425 -9.510565162951545 L-3.681245526846753 -9.297764858882523 L-4.257792915650698 -9.048270524660207 L-4.817536741017129 -8.763066800438647 L-5.358267949789941 -8.443279255020165 L-5.877852522924711 -8.090169943749487 L-6.374239897486875 -7.705132427757909 L-6.845471059286866 -7.289686274214133 L-7.289686274214096 -6.845471059286904 L-7.705132427757876 -6.374239897486917 L-8.090169943749459 -5.8778525229247505 L-8.443279255020137 -5.358267949789986 L-8.763066800438624 -4.8175367410171726 L-9.048270524660186 -4.257792915650747 L-9.297764858882505 -3.6812455268467987 L-9.51056516295153 -3.0901699437494936 L-9.685831611286307 -2.486898871648567 L-9.822872507286883 -1.8738131458572647 L-9.921147013144775 -1.2533323356430648 L-9.980267284282714 -0.6279051952931555 L-10 -2.0979813693355776e-14 L-9.980267284282716 0.6279051952931092 L-9.92114701314478 1.2533323356430188 L-9.82287250728689 1.8738131458572236 L-9.685831611286316 2.4868988716485263 L-9.510565162951542 3.0901699437494536 L-9.297764858882521 3.6812455268467605 L-9.048270524660204 4.257792915650708 L-8.763066800438645 4.817536741017135 L-8.44327925502016 5.35826794978995 L-8.090169943749485 5.877852522924717 L-7.705132427757903 6.374239897486883 L-7.289686274214126 6.845471059286875 L-6.845471059286897 7.289686274214104 L-6.374239897486911 7.70513242775788 L-5.877852522924744 8.090169943749462 L-5.35826794978998 8.44327925502014 L-4.817536741017166 8.763066800438628 L-4.2577929156507395 9.048270524660188 L-3.681245526846792 9.297764858882507 L-3.090169943749486 9.510565162951531 L-2.486898871648559 9.685831611286307 L-1.8738131458572571 9.822872507286883 L-1.2533323356430524 9.921147013144775 L-0.6279051952931451 9.980267284282712 L-1.048990684667789e-14 9.999999999999998 L0.6279051952931242 9.980267284282714 L1.2533323356430337 9.921147013144777 L1.8738131458572385 9.822872507286887 L2.486898871648541 9.68583161128631 L3.0901699437494683 9.510565162951536 L3.6812455268467725 9.297764858882514 L4.257792915650721 9.048270524660197 L4.817536741017148 8.763066800438638 L5.358267949789962 8.443279255020153 L5.877852522924728 8.090169943749475 L6.374239897486894 7.705132427757894 L6.845471059286884 7.289686274214116 L7.289686274214113 6.845471059286889 L7.70513242775789 6.374239897486898 L8.090169943749473 5.877852522924734 L8.443279255020148 5.358267949789969 L8.763066800438633 4.817536741017157 L9.048270524660193 4.257792915650731 L9.297764858882513 3.681245526846784 L9.510565162951535 3.0901699437494794 L9.685831611286309 2.486898871648553 L9.822872507286887 1.8738131458572513 L9.921147013144777 1.2533323356430477 L9.980267284282716 0.627905195293139 L10 5.449794528138487e-15 L9.980267284282716 -0.627905195293128 L9.921147013144779 -1.2533323356430368 L9.822872507286888 -1.873813145857241 L9.685831611286313 -2.4868988716485423 L9.510565162951538 -3.090169943749469 L9.297764858882516 -3.6812455268467748 L9.048270524660198 -4.257792915650721 L8.763066800438638 -4.817536741017148 L8.443279255020155 -5.35826794978996 L8.090169943749478 -5.877852522924726 L7.705132427757896 -6.374239897486891 L7.2896862742141195 -6.84547105928688 L6.845471059286892 -7.289686274214109 L6.374239897486902 -7.705132427757888 L5.877852522924735 -8.09016994374947 L5.358267949789971 -8.443279255020146 L4.8175367410171575 -8.763066800438631 L4.257792915650731 -9.048270524660191 L3.681245526846783 -9.29776485888251 L3.0901699437494767 -9.510565162951533 L2.48689887164855 -9.685831611286309 L1.8738131458572493 -9.822872507286885 z"/>
<path fill="#dfb1e8" stroke="#dfb1e8" d="M6.123233995736766e-16 -9.999999999999998 L0.6279051952931353 -9.980267284282714 L1.2533323356430448 -9.921147013144775 L1.8738131458572493 -9.822872507286885 L2.48689887164855 -9.685831611286309 L3.0901699437494767 -9.510565162951533 L3.681245526846783 -9.29776485888251 L4.257792915650731 -9.048270524660191 L4.8175367410171575 -8.763066800438631 L5.358267949789971 -8.443279255020146 L5.877852522924735 -8.09016994374947 L6.374239897486902 -7.705132427757888 L6.845471059286892 -7.289686274214109 L7.2896862742141195 -6.84547105928688 L7.705132427757896 -6.374239897486891 L8.090169943749478 -5.877852522924726 L8.443279255020155 -5.35826794978996 L8.763066800438638 -4.817536741017148 L9.048270524660198 -4.257792915650721 L9.297764858882516 -3.6812455268467748 L9.510565162951538 -3.090169943749469 L9.685831611286313 -2.4868988716485423 L9.822872507286888 -1.873813145857241 L9.921147013144779 -1.2533323356430368 L9.980267284282716 -0.627905195293128 L10 5.449794528138487e-15 L9.980267284282716 0.627905195293139 L9.921147013144777 1.2533323356430477 L9.822872507286887 1.8738131458572513 L9.685831611286309 2.486898871648553 L9.510565162951535 3.0901699437494794 L9.297764858882513 3.681245526846784 L9.048270524660193 4.257792915650731 L8.763066800438633 4.817536741017157 L8.443279255020148 5.358267949789969 L8.090169943749473 5.877852522924734 L7.70513242775789 6.374239897486898 L7.289686274214113 6.845471059286889 L6.845471059286884 7.289686274214116 L6.374239897486894 7.705132427757894 L5.877852522924728 8.090169943749475 L5.358267949789962 8.443279255020153 L4.817536741017148 8.763066800438638 L4.257792915650721 9.048270524660197 L3.6812455268467725 9.297764858882514 L3.0901699437494683 9.510565162951536 L2.486898871648541 9.68583161128631 L1.8738131458572385 9.822872507286887 L1.2533323356430337 9.921147013144777 L0.6279051952931242 9.980267284282714 L-1.048990684667789e-14 9.999999999999998 L-0.6279051952931451 9.980267284282712 L-1.2533323356430524 9.921147013144775 L-1.8738131458572571 9.822872507286883 L-2.486898871648559 9.685831611286307 L-3.090169943749486 9.510565162951531 L-3.681245526846792 9.297764858882507 L-4.2577929156507395 9.048270524660188 L-4.817536741017166 8.763066800438628 L-5.35826794978998 8.44327925502014 L-5.877852522924744 8.090169943749462 L-6.374239897486911 7.70513242775788 L-6.845471059286897 7.289686274214104 L-7.289686274214126 6.845471059286875 L-7.705132427757903 6.374239897486883 L-8.090169943749485 5.877852522924717 L-8.44327925502016 5.35826794978995 L-8.763066800438645 4.817536741017135 L-9.048270524660204 4.257792915650708 L-9.297764858882521 3.6812455268467605 L-9.510565162951542 3.0901699437494536 L-9.685831611286316 2.4868988716485263 L-9.82287250728689 1.8738131458572236 L-9.92114701314478 1.2533323356430188 L-9.980267284282716 0.6279051952931092 L-10 -2.0979813693355776e-14 L-9.980267284282714 -0.6279051952931555 L-9.921147013144775 -1.2533323356430648 L-9.822872507286883 -1.8738131458572647 L-9.685831611286307 -2.486898871648567 L-9.51056516295153 -3.0901699437494936 L-9.297764858882505 -3.6812455268467987 L-9.048270524660186 -4.257792915650747 L-8.763066800438624 -4.8175367410171726 L-8.443279255020137 -5.358267949789986 L-8.090169943749459 -5.8778525229247505 L-7.705132427757876 -6.374239897486917 L-7.289686274214096 -6.845471059286904 L-6.845471059286866 -7.289686274214133 L-6.374239897486875 -7.705132427757909 L-5.877852522924711 -8.090169943749487 L-5.358267949789941 -8.443279255020165 L-4.817536741017129 -8.763066800438647 L-4.257792915650698 -9.048270524660207 L-3.681245526846753 -9.297764858882523 L-3.0901699437494425 -9.510565162951545 L-2.4868988716485187 -9.685831611286316 L-1.8738131458572114 -9.822872507286892 L-1.2533323356430106 -9.92114701314478 L-0.6279051952931054 -9.980267284282716 z"/>
</svg>