<?xml version="1.0" encoding="UTF-8"?>
<!-- Generated by jsxcad -->
<!DOCTYPE svg PUBLIC "-//W3C//DTD SVG 1.1 Tiny//EN" "http://www.w3.org/Graphics/SVG/1.1/DTD/svg11-tiny.dtd">
<svg baseProfile="tiny" height="10.000000000000007mm" width="10.000000000000007mm" viewBox="-5.0000000000000036 -5.0000000000000036 10.000000000000007 10.000000000000007" version="1.1" stroke="black" stroke-width=".1" fill="none" xmlns="http://www.w3.org/2000/svg">
<path fill="#dfb1e8" stroke="#dfb1e8" d="M0.6266661678215223 -4.960573506572389 L0.6266661678215223 -4.960573506572389 L0.3139525976465676 -4.990133642141358 L0.3139525976465676 -4.990133642141358 z"/>
<path fill="#dfb1e8" stroke="#dfb1e8" d="M0.3139525976465676 -4.990133642141358 L0.3139525976465676 -4.990133642141358 L3.0616169978683826e-16 -5 L3.0616169978683826e-16 -5 z"/>
<path fill="#dfb1e8" stroke="#dfb1e8" d="M1.2434494358242747 -4.842915805643155 L1.2434494358242747 -4.842915805643155 L0.9369065729286246 -4.911436253643443 L0.9369065729286246 -4.911436253643443 z"/>
<path fill="#dfb1e8" stroke="#dfb1e8" d="M0.9369065729286244 -4.911436253643443 L0.9369065729286244 -4.911436253643443 L0.6266661678215223 -4.960573506572389 L0.6266661678215223 -4.960573506572389 z"/>
<path fill="#dfb1e8" stroke="#dfb1e8" d="M1.5450849718747381 -4.755282581475767 L1.5450849718747381 -4.755282581475767 L1.2434494358242747 -4.842915805643155 L1.2434494358242747 -4.842915805643155 z"/>
<path fill="#dfb1e8" stroke="#dfb1e8" d="M2.128896457825365 -4.5241352623300966 L2.128896457825365 -4.5241352623300966 L1.8406227634233914 -4.648882429441256 L1.8406227634233914 -4.648882429441256 z"/>
<path fill="#dfb1e8" stroke="#dfb1e8" d="M1.8406227634233914 -4.648882429441256 L1.8406227634233914 -4.648882429441256 L1.545084971874738 -4.755282581475767 L1.545084971874738 -4.755282581475767 z"/>
<path fill="#dfb1e8" stroke="#dfb1e8" d="M2.4087683705085783 -4.3815334002193165 L2.4087683705085783 -4.3815334002193165 L2.128896457825365 -4.5241352623300966 L2.128896457825365 -4.5241352623300966 z"/>
<path fill="#dfb1e8" stroke="#dfb1e8" d="M2.679133974894985 -4.221639627510074 L2.679133974894985 -4.221639627510074 L2.4087683705085783 -4.3815334002193165 L2.4087683705085783 -4.3815334002193165 z"/>
<path fill="#dfb1e8" stroke="#dfb1e8" d="M2.938926261462367 -4.0450849718747355 L2.938926261462367 -4.0450849718747355 L2.679133974894985 -4.221639627510074 L2.679133974894985 -4.221639627510074 z"/>
<path fill="#dfb1e8" stroke="#dfb1e8" d="M3.6448431371070598 -3.4227355296434405 L3.6448431371070598 -3.4227355296434405 L3.422735529643446 -3.644843137107055 L3.422735529643446 -3.644843137107055 z"/>
<path fill="#dfb1e8" stroke="#dfb1e8" d="M3.1871199487434505 -3.8525662138789443 L3.1871199487434505 -3.8525662138789443 L2.9389262614623672 -4.0450849718747355 L2.9389262614623672 -4.0450849718747355 z"/>
<path fill="#dfb1e8" stroke="#dfb1e8" d="M3.4227355296434454 -3.6448431371070553 L3.4227355296434454 -3.6448431371070553 L3.1871199487434505 -3.8525662138789443 L3.1871199487434505 -3.8525662138789443 z"/>
<path fill="#dfb1e8" stroke="#dfb1e8" d="M4.381533400219319 -2.408768370508574 L4.381533400219319 -2.408768370508574 L4.221639627510077 -2.67913397489498 L4.221639627510077 -2.67913397489498 z"/>
<path fill="#dfb1e8" stroke="#dfb1e8" d="M4.221639627510077 -2.6791339748949796 L4.221639627510077 -2.6791339748949796 L4.045084971874739 -2.938926261462363 L4.045084971874739 -2.938926261462363 z"/>
<path fill="#dfb1e8" stroke="#dfb1e8" d="M4.045084971874739 -2.938926261462363 L4.045084971874739 -2.938926261462363 L3.852566213878948 -3.187119948743446 L3.852566213878948 -3.187119948743446 z"/>
<path fill="#dfb1e8" stroke="#dfb1e8" d="M4.648882429441258 -1.8406227634233874 L4.648882429441258 -1.8406227634233874 L4.524135262330099 -2.1288964578253604 L4.524135262330099 -2.1288964578253604 z"/>
<path fill="#dfb1e8" stroke="#dfb1e8" d="M4.524135262330099 -2.1288964578253604 L4.524135262330099 -2.1288964578253604 L4.381533400219319 -2.408768370508574 L4.381533400219319 -2.408768370508574 z"/>
<path fill="#dfb1e8" stroke="#dfb1e8" d="M4.842915805643156 -1.2434494358242711 L4.842915805643156 -1.2434494358242711 L4.755282581475769 -1.5450849718747344 L4.755282581475769 -1.5450849718747344 z"/>
<path fill="#dfb1e8" stroke="#dfb1e8" d="M4.755282581475769 -1.5450849718747346 L4.755282581475769 -1.5450849718747346 L4.648882429441258 -1.8406227634233874 L4.648882429441258 -1.8406227634233874 z"/>
<path fill="#dfb1e8" stroke="#dfb1e8" d="M4.9605735065723895 -0.6266661678215184 L4.9605735065723895 -0.6266661678215184 L4.911436253643444 -0.9369065729286203 L4.911436253643444 -0.9369065729286203 z"/>
<path fill="#dfb1e8" stroke="#dfb1e8" d="M4.911436253643444 -0.9369065729286205 L4.911436253643444 -0.9369065729286205 L4.842915805643156 -1.2434494358242711 L4.842915805643156 -1.2434494358242711 z"/>
<path fill="#dfb1e8" stroke="#dfb1e8" d="M3.852566213878948 -3.187119948743446 L3.852566213878948 -3.187119948743446 L3.6448431371070598 -3.4227355296434405 L3.6448431371070598 -3.4227355296434405 z"/>
<path fill="#dfb1e8" stroke="#dfb1e8" d="M4.990133642141358 -0.313952597646564 L4.990133642141358 -0.313952597646564 L4.9605735065723895 -0.6266661678215184 L4.9605735065723895 -0.6266661678215184 z"/>
<path fill="#dfb1e8" stroke="#dfb1e8" d="M4.999999999999999 2.7248972640692434e-15 L4.999999999999999 2.7248972640692434e-15 L4.990133642141358 -0.313952597646564 L4.990133642141358 -0.313952597646564 z"/>
<path fill="#dfb1e8" stroke="#dfb1e8" d="M4.960573506572389 0.6266661678215238 L4.960573506572389 0.6266661678215238 L4.990133642141358 0.3139525976465695 L4.990133642141358 0.3139525976465695 z"/>
<path fill="#dfb1e8" stroke="#dfb1e8" d="M4.990133642141358 0.3139525976465695 L4.990133642141358 0.3139525976465695 L5 2.7248972640692434e-15 L5 2.7248972640692434e-15 z"/>
<path fill="#dfb1e8" stroke="#dfb1e8" d="M4.8429158056431545 1.2434494358242765 L4.8429158056431545 1.2434494358242765 L4.911436253643443 0.9369065729286257 L4.911436253643443 0.9369065729286257 z"/>
<path fill="#dfb1e8" stroke="#dfb1e8" d="M4.911436253643443 0.9369065729286258 L4.911436253643443 0.9369065729286258 L4.960573506572389 0.6266661678215238 L4.960573506572389 0.6266661678215238 z"/>
<path fill="#dfb1e8" stroke="#dfb1e8" d="M4.221639627510074 2.6791339748949845 L4.221639627510074 2.6791339748949845 L4.3815334002193165 2.4087683705085783 L4.3815334002193165 2.4087683705085783 z"/>
<path fill="#dfb1e8" stroke="#dfb1e8" d="M4.755282581475767 1.5450849718747397 L4.755282581475767 1.5450849718747397 L4.8429158056431545 1.2434494358242765 L4.8429158056431545 1.2434494358242765 z"/>
<path fill="#dfb1e8" stroke="#dfb1e8" d="M4.648882429441256 1.8406227634233918 L4.648882429441256 1.8406227634233918 L4.755282581475767 1.5450849718747395 L4.755282581475767 1.5450849718747395 z"/>
<path fill="#dfb1e8" stroke="#dfb1e8" d="M4.5241352623300966 2.1288964578253653 L4.5241352623300966 2.1288964578253653 L4.648882429441256 1.8406227634233918 L4.648882429441256 1.8406227634233918 z"/>
<path fill="#dfb1e8" stroke="#dfb1e8" d="M4.3815334002193165 2.4087683705085783 L4.3815334002193165 2.4087683705085783 L4.5241352623300966 2.1288964578253653 L4.5241352623300966 2.1288964578253653 z"/>
<path fill="#dfb1e8" stroke="#dfb1e8" d="M4.045084971874736 2.938926261462367 L4.045084971874736 2.938926261462367 L4.221639627510074 2.6791339748949845 L4.221639627510074 2.6791339748949845 z"/>
<path fill="#dfb1e8" stroke="#dfb1e8" d="M3.852566213878945 3.1871199487434496 L3.852566213878945 3.1871199487434496 L4.045084971874736 2.938926261462367 L4.045084971874736 2.938926261462367 z"/>
<path fill="#dfb1e8" stroke="#dfb1e8" d="M3.422735529643441 3.6448431371070593 L3.422735529643441 3.6448431371070593 L3.644843137107056 3.422735529643445 L3.644843137107056 3.422735529643445 z"/>
<path fill="#dfb1e8" stroke="#dfb1e8" d="M3.6448431371070567 3.4227355296434445 L3.6448431371070567 3.4227355296434445 L3.852566213878945 3.1871199487434496 L3.852566213878945 3.1871199487434496 z"/>
<path fill="#dfb1e8" stroke="#dfb1e8" d="M3.1871199487434465 3.8525662138789474 L3.1871199487434465 3.8525662138789474 L3.4227355296434414 3.644843137107059 L3.4227355296434414 3.644843137107059 z"/>
<path fill="#dfb1e8" stroke="#dfb1e8" d="M1.8406227634233858 4.648882429441258 L1.8406227634233858 4.648882429441258 L2.12889645782536 4.524135262330099 L2.12889645782536 4.524135262330099 z"/>
<path fill="#dfb1e8" stroke="#dfb1e8" d="M2.12889645782536 4.524135262330099 L2.12889645782536 4.524135262330099 L2.4087683705085734 4.38153340021932 L2.4087683705085734 4.38153340021932 z"/>
<path fill="#dfb1e8" stroke="#dfb1e8" d="M2.6791339748949805 4.221639627510077 L2.6791339748949805 4.221639627510077 L2.9389262614623637 4.045084971874738 L2.9389262614623637 4.045084971874738 z"/>
<path fill="#dfb1e8" stroke="#dfb1e8" d="M2.4087683705085734 4.38153340021932 L2.4087683705085734 4.38153340021932 L2.6791339748949805 4.221639627510077 L2.6791339748949805 4.221639627510077 z"/>
<path fill="#dfb1e8" stroke="#dfb1e8" d="M2.9389262614623632 4.045084971874738 L2.9389262614623632 4.045084971874738 L3.1871199487434465 3.8525662138789474 L3.1871199487434465 3.8525662138789474 z"/>
<path fill="#dfb1e8" stroke="#dfb1e8" d="M1.2434494358242703 4.842915805643156 L1.2434494358242703 4.842915805643156 L1.545084971874734 4.755282581475769 L1.545084971874734 4.755282581475769 z"/>
<path fill="#dfb1e8" stroke="#dfb1e8" d="M1.5450849718747337 4.755282581475769 L1.5450849718747337 4.755282581475769 L1.8406227634233858 4.648882429441258 L1.8406227634233858 4.648882429441258 z"/>
<path fill="#dfb1e8" stroke="#dfb1e8" d="M0.6266661678215167 4.9605735065723895 L0.6266661678215167 4.9605735065723895 L0.9369065729286191 4.911436253643444 L0.9369065729286191 4.911436253643444 z"/>
<path fill="#dfb1e8" stroke="#dfb1e8" d="M0.9369065729286191 4.911436253643444 L0.9369065729286191 4.911436253643444 L1.2434494358242703 4.842915805643156 L1.2434494358242703 4.842915805643156 z"/>
<path fill="#dfb1e8" stroke="#dfb1e8" d="M0.313952597646562 4.990133642141358 L0.313952597646562 4.990133642141358 L0.6266661678215167 4.9605735065723895 L0.6266661678215167 4.9605735065723895 z"/>
<path fill="#dfb1e8" stroke="#dfb1e8" d="M-0.3139525976465725 4.990133642141357 L-0.3139525976465725 4.990133642141357 L-5.244953423338944e-15 5 L-5.244953423338944e-15 5 z"/>
<path fill="#dfb1e8" stroke="#dfb1e8" d="M-5.244953423338944e-15 4.999999999999999 L-5.244953423338944e-15 4.999999999999999 L0.313952597646562 4.990133642141358 L0.313952597646562 4.990133642141358 z"/>
<path fill="#dfb1e8" stroke="#dfb1e8" d="M-0.6266661678215261 4.960573506572389 L-0.6266661678215261 4.960573506572389 L-0.3139525976465725 4.990133642141357 L-0.3139525976465725 4.990133642141357 z"/>
<path fill="#dfb1e8" stroke="#dfb1e8" d="M-0.9369065729286284 4.911436253643442 L-0.9369065729286284 4.911436253643442 L-0.6266661678215261 4.960573506572389 L-0.6266661678215261 4.960573506572389 z"/>
<path fill="#dfb1e8" stroke="#dfb1e8" d="M-1.2434494358242794 4.8429158056431545 L-1.2434494358242794 4.8429158056431545 L-0.9369065729286284 4.911436253643442 L-0.9369065729286284 4.911436253643442 z"/>
<path fill="#dfb1e8" stroke="#dfb1e8" d="M-1.8406227634233956 4.6488824294412545 L-1.8406227634233956 4.6488824294412545 L-1.5450849718747428 4.755282581475766 L-1.5450849718747428 4.755282581475766 z"/>
<path fill="#dfb1e8" stroke="#dfb1e8" d="M-1.5450849718747428 4.755282581475766 L-1.5450849718747428 4.755282581475766 L-1.2434494358242794 4.8429158056431545 L-1.2434494358242794 4.8429158056431545 z"/>
<path fill="#dfb1e8" stroke="#dfb1e8" d="M-2.1288964578253693 4.524135262330095 L-2.1288964578253693 4.524135262330095 L-1.8406227634233958 4.6488824294412545 L-1.8406227634233958 4.6488824294412545 z"/>
<path fill="#dfb1e8" stroke="#dfb1e8" d="M-2.9389262614623717 4.045084971874732 L-2.9389262614623717 4.045084971874732 L-2.679133974894989 4.221639627510071 L-2.679133974894989 4.221639627510071 z"/>
<path fill="#dfb1e8" stroke="#dfb1e8" d="M-2.4087683705085827 4.381533400219315 L-2.4087683705085827 4.381533400219315 L-2.1288964578253693 4.524135262330095 L-2.1288964578253693 4.524135262330095 z"/>
<path fill="#dfb1e8" stroke="#dfb1e8" d="M-2.6791339748949894 4.221639627510071 L-2.6791339748949894 4.221639627510071 L-2.4087683705085827 4.381533400219315 L-2.4087683705085827 4.381533400219315 z"/>
<path fill="#dfb1e8" stroke="#dfb1e8" d="M-3.422735529643448 3.6448431371070527 L-3.422735529643448 3.6448431371070527 L-3.187119948743455 3.8525662138789407 L-3.187119948743455 3.8525662138789407 z"/>
<path fill="#dfb1e8" stroke="#dfb1e8" d="M-3.187119948743455 3.8525662138789407 L-3.187119948743455 3.8525662138789407 L-2.9389262614623712 4.045084971874732 L-2.9389262614623712 4.045084971874732 z"/>
<path fill="#dfb1e8" stroke="#dfb1e8" d="M-3.8525662138789514 3.187119948743442 L-3.8525662138789514 3.187119948743442 L-3.644843137107063 3.4227355296434374 L-3.644843137107063 3.4227355296434374 z"/>
<path fill="#dfb1e8" stroke="#dfb1e8" d="M-4.22163962751008 2.679133974894975 L-4.22163962751008 2.679133974894975 L-4.045084971874743 2.938926261462358 L-4.045084971874743 2.938926261462358 z"/>
<path fill="#dfb1e8" stroke="#dfb1e8" d="M-4.045084971874743 2.9389262614623584 L-4.045084971874743 2.9389262614623584 L-3.8525662138789514 3.187119948743442 L-3.8525662138789514 3.187119948743442 z"/>
<path fill="#dfb1e8" stroke="#dfb1e8" d="M-4.648882429441261 1.8406227634233803 L-4.648882429441261 1.8406227634233803 L-4.524135262330102 2.128896457825354 L-4.524135262330102 2.128896457825354 z"/>
<path fill="#dfb1e8" stroke="#dfb1e8" d="M-4.381533400219323 2.4087683705085676 L-4.381533400219323 2.4087683705085676 L-4.22163962751008 2.679133974894975 L-4.22163962751008 2.679133974894975 z"/>
<path fill="#dfb1e8" stroke="#dfb1e8" d="M-4.524135262330102 2.128896457825354 L-4.524135262330102 2.128896457825354 L-4.381533400219323 2.4087683705085676 L-4.381533400219323 2.4087683705085676 z"/>
<path fill="#dfb1e8" stroke="#dfb1e8" d="M-4.755282581475771 1.5450849718747266 L-4.755282581475771 1.5450849718747266 L-4.648882429441261 1.8406227634233803 L-4.648882429441261 1.8406227634233803 z"/>
<path fill="#dfb1e8" stroke="#dfb1e8" d="M-4.911436253643445 0.9369065729286118 L-4.911436253643445 0.9369065729286118 L-4.842915805643158 1.2434494358242631 L-4.842915805643158 1.2434494358242631 z"/>
<path fill="#dfb1e8" stroke="#dfb1e8" d="M-4.842915805643158 1.2434494358242631 L-4.842915805643158 1.2434494358242631 L-4.755282581475771 1.5450849718747268 L-4.755282581475771 1.5450849718747268 z"/>
<path fill="#dfb1e8" stroke="#dfb1e8" d="M-3.644843137107063 3.4227355296434374 L-3.644843137107063 3.4227355296434374 L-3.4227355296434485 3.644843137107052 L-3.4227355296434485 3.644843137107052 z"/>
<path fill="#dfb1e8" stroke="#dfb1e8" d="M-4.990133642141358 0.3139525976465546 L-4.990133642141358 0.3139525976465546 L-4.96057350657239 0.6266661678215094 L-4.96057350657239 0.6266661678215094 z"/>
<path fill="#dfb1e8" stroke="#dfb1e8" d="M-4.96057350657239 0.6266661678215094 L-4.96057350657239 0.6266661678215094 L-4.911436253643445 0.9369065729286118 L-4.911436253643445 0.9369065729286118 z"/>
<path fill="#dfb1e8" stroke="#dfb1e8" d="M-4.960573506572388 -0.6266661678215324 L-4.960573506572388 -0.6266661678215324 L-4.990133642141357 -0.31395259764657774 L-4.990133642141357 -0.31395259764657774 z"/>
<path fill="#dfb1e8" stroke="#dfb1e8" d="M-4.755282581475765 -1.5450849718747466 L-4.755282581475765 -1.5450849718747466 L-4.842915805643154 -1.2434494358242836 L-4.842915805643154 -1.2434494358242836 z"/>
<path fill="#dfb1e8" stroke="#dfb1e8" d="M-4.842915805643154 -1.2434494358242836 L-4.842915805643154 -1.2434494358242836 L-4.9114362536434415 -0.9369065729286323 L-4.9114362536434415 -0.9369065729286323 z"/>
<path fill="#dfb1e8" stroke="#dfb1e8" d="M-4.648882429441253 -1.8406227634233996 L-4.648882429441253 -1.8406227634233996 L-4.755282581475765 -1.5450849718747468 L-4.755282581475765 -1.5450849718747468 z"/>
<path fill="#dfb1e8" stroke="#dfb1e8" d="M-4.9114362536434415 -0.9369065729286324 L-4.9114362536434415 -0.9369065729286324 L-4.960573506572388 -0.6266661678215324 L-4.960573506572388 -0.6266661678215324 z"/>
<path fill="#dfb1e8" stroke="#dfb1e8" d="M-4.381533400219312 -2.4087683705085863 L-4.381533400219312 -2.4087683705085863 L-4.524135262330093 -2.1288964578253733 L-4.524135262330093 -2.1288964578253733 z"/>
<path fill="#dfb1e8" stroke="#dfb1e8" d="M-4.524135262330093 -2.1288964578253733 L-4.524135262330093 -2.1288964578253733 L-4.648882429441253 -1.8406227634233996 L-4.648882429441253 -1.8406227634233996 z"/>
<path fill="#dfb1e8" stroke="#dfb1e8" d="M-4.045084971874729 -2.9389262614623752 L-4.045084971874729 -2.9389262614623752 L-4.2216396275100685 -2.679133974894993 L-4.2216396275100685 -2.679133974894993 z"/>
<path fill="#dfb1e8" stroke="#dfb1e8" d="M-4.2216396275100685 -2.679133974894993 L-4.2216396275100685 -2.679133974894993 L-4.381533400219312 -2.4087683705085863 L-4.381533400219312 -2.4087683705085863 z"/>
<path fill="#dfb1e8" stroke="#dfb1e8" d="M-4.999999999999999 -1.0489906846677888e-14 L-4.999999999999999 -1.0489906846677888e-14 L-4.990133642141358 0.3139525976465546 L-4.990133642141358 0.3139525976465546 z"/>
<path fill="#dfb1e8" stroke="#dfb1e8" d="M-4.990133642141357 -0.31395259764657774 L-4.990133642141357 -0.31395259764657774 L-5 -1.0489906846677888e-14 L-5 -1.0489906846677888e-14 z"/>
<path fill="#dfb1e8" stroke="#dfb1e8" d="M-3.644843137107048 -3.4227355296434525 L-3.644843137107048 -3.4227355296434525 L-3.852566213878938 -3.1871199487434585 L-3.852566213878938 -3.1871199487434585 z"/>
<path fill="#dfb1e8" stroke="#dfb1e8" d="M-3.852566213878938 -3.187119948743458 L-3.852566213878938 -3.187119948743458 L-4.045084971874729 -2.9389262614623752 L-4.045084971874729 -2.9389262614623752 z"/>
<path fill="#dfb1e8" stroke="#dfb1e8" d="M-3.187119948743437 -3.852566213878955 L-3.187119948743437 -3.852566213878955 L-3.4227355296434325 -3.6448431371070673 L-3.4227355296434325 -3.6448431371070673 z"/>
<path fill="#dfb1e8" stroke="#dfb1e8" d="M-3.4227355296434325 -3.6448431371070673 L-3.4227355296434325 -3.6448431371070673 L-3.6448431371070478 -3.422735529643453 L-3.6448431371070478 -3.422735529643453 z"/>
<path fill="#dfb1e8" stroke="#dfb1e8" d="M-2.408768370508564 -4.3815334002193245 L-2.408768370508564 -4.3815334002193245 L-2.67913397489497 -4.221639627510084 L-2.67913397489497 -4.221639627510084 z"/>
<path fill="#dfb1e8" stroke="#dfb1e8" d="M-2.9389262614623552 -4.045084971874744 L-2.9389262614623552 -4.045084971874744 L-3.187119948743437 -3.852566213878955 L-3.187119948743437 -3.852566213878955 z"/>
<path fill="#dfb1e8" stroke="#dfb1e8" d="M-2.67913397489497 -4.221639627510084 L-2.67913397489497 -4.221639627510084 L-2.9389262614623552 -4.045084971874744 L-2.9389262614623552 -4.045084971874744 z"/>
<path fill="#dfb1e8" stroke="#dfb1e8" d="M-2.1288964578253484 -4.5241352623301045 L-2.1288964578253484 -4.5241352623301045 L-2.408768370508564 -4.3815334002193245 L-2.408768370508564 -4.3815334002193245 z"/>
<path fill="#dfb1e8" stroke="#dfb1e8" d="M-1.8406227634233763 -4.6488824294412625 L-1.8406227634233763 -4.6488824294412625 L-2.1288964578253484 -4.5241352623301045 L-2.1288964578253484 -4.5241352623301045 z"/>
<path fill="#dfb1e8" stroke="#dfb1e8" d="M-1.2434494358242592 -4.842915805643159 L-1.2434494358242592 -4.842915805643159 L-1.545084971874721 -4.7552825814757735 L-1.545084971874721 -4.7552825814757735 z"/>
<path fill="#dfb1e8" stroke="#dfb1e8" d="M-1.5450849718747208 -4.7552825814757735 L-1.5450849718747208 -4.7552825814757735 L-1.8406227634233763 -4.6488824294412625 L-1.8406227634233763 -4.6488824294412625 z"/>
<path fill="#dfb1e8" stroke="#dfb1e8" d="M-0.6266661678215052 -4.960573506572391 L-0.6266661678215052 -4.960573506572391 L-0.9369065729286056 -4.911436253643447 L-0.9369065729286056 -4.911436253643447 z"/>
<path fill="#dfb1e8" stroke="#dfb1e8" d="M-0.9369065729286056 -4.911436253643447 L-0.9369065729286056 -4.911436253643447 L-1.2434494358242592 -4.842915805643159 L-1.2434494358242592 -4.842915805643159 z"/>
<path fill="#dfb1e8" stroke="#dfb1e8" d="M-0.31395259764655264 -4.990133642141359 L-0.31395259764655264 -4.990133642141359 L-0.6266661678215052 -4.960573506572391 L-0.6266661678215052 -4.960573506572391 z"/>
<path fill="#dfb1e8" stroke="#dfb1e8" d="M3.0616169978683826e-16 -4.999999999999999 L3.0616169978683826e-16 -4.999999999999999 L-0.31395259764655264 -4.990133642141359 L-0.31395259764655264 -4.990133642141359 z"/>
<path fill="#dfb1e8" stroke="#dfb1e8" d="M0.6266661678215224 -4.960573506572388 L0.31395259764656763 -4.990133642141357 L3.061616997868383e-16 -4.999999999999999 L-0.3139525976465527 -4.990133642141358 L-0.6266661678215053 -4.96057350657239 L-0.9369065729286057 -4.911436253643446 L-1.2434494358242594 -4.842915805643158 L-1.5450849718747213 -4.755282581475773 L-1.8406227634233765 -4.648882429441262 L-2.128896457825349 -4.524135262330104 L-2.4087683705085645 -4.381533400219324 L-2.6791339748949703 -4.221639627510083 L-2.9389262614623557 -4.0450849718747435 L-3.1871199487434376 -3.8525662138789545 L-3.422735529643433 -3.6448431371070664 L-3.644843137107048 -3.422735529643452 L-3.852566213878938 -3.1871199487434585 L-4.045084971874729 -2.9389262614623752 L-4.2216396275100685 -2.679133974894993 L-4.381533400219312 -2.4087683705085863 L-4.524135262330093 -2.1288964578253733 L-4.648882429441253 -1.8406227634233994 L-4.755282581475765 -1.5450849718747468 L-4.842915805643154 -1.2434494358242836 L-4.9114362536434415 -0.9369065729286323 L-4.960573506572388 -0.6266661678215324 L-4.990133642141357 -0.31395259764657774 L-5 -1.0489906846677888e-14 L-4.990133642141358 0.3139525976465546 L-4.96057350657239 0.6266661678215094 L-4.911436253643445 0.9369065729286118 L-4.842915805643158 1.2434494358242631 L-4.755282581475771 1.5450849718747268 L-4.648882429441261 1.8406227634233803 L-4.524135262330102 2.128896457825354 L-4.381533400219323 2.4087683705085676 L-4.22163962751008 2.679133974894975 L-4.045084971874743 2.9389262614623584 L-3.8525662138789514 3.1871199487434416 L-3.644843137107063 3.4227355296434374 L-3.4227355296434485 3.644843137107052 L-3.1871199487434554 3.85256621387894 L-2.938926261462372 4.045084971874731 L-2.67913397489499 4.22163962751007 L-2.408768370508583 4.381533400219314 L-2.1288964578253697 4.524135262330094 L-1.840622763423396 4.648882429441254 L-1.545084971874743 4.7552825814757655 L-1.2434494358242796 4.842915805643154 L-0.9369065729286286 4.9114362536434415 L-0.6266661678215262 4.960573506572388 L-0.3139525976465726 4.990133642141356 L-5.244953423338945e-15 4.999999999999999 L0.3139525976465621 4.990133642141357 L0.6266661678215169 4.960573506572389 L0.9369065729286192 4.911436253643443 L1.2434494358242705 4.842915805643155 L1.5450849718747341 4.755282581475768 L1.8406227634233863 4.648882429441257 L2.1288964578253604 4.524135262330098 L2.408768370508574 4.381533400219319 L2.679133974894981 4.2216396275100765 L2.938926261462364 4.045084971874737 L3.187119948743447 3.852566213878947 L3.422735529643442 3.644843137107058 L3.6448431371070567 3.4227355296434445 L3.852566213878945 3.187119948743449 L4.045084971874736 2.938926261462367 L4.221639627510074 2.6791339748949845 L4.3815334002193165 2.4087683705085783 L4.5241352623300966 2.1288964578253653 L4.648882429441256 1.840622763423392 L4.755282581475767 1.5450849718747397 L4.8429158056431545 1.2434494358242765 L4.911436253643443 0.9369065729286257 L4.960573506572389 0.6266661678215238 L4.990133642141358 0.3139525976465695 L5 2.7248972640692434e-15 L4.990133642141358 -0.313952597646564 L4.9605735065723895 -0.6266661678215184 L4.911436253643444 -0.9369065729286205 L4.842915805643156 -1.2434494358242711 L4.755282581475769 -1.5450849718747346 L4.648882429441258 -1.8406227634233874 L4.524135262330099 -2.1288964578253604 L4.381533400219319 -2.408768370508574 L4.221639627510077 -2.67913397489498 L4.045084971874739 -2.938926261462363 L3.852566213878948 -3.1871199487434456 L3.6448431371070598 -3.42273552964344 L3.422735529643446 -3.6448431371070544 L3.187119948743451 -3.852566213878944 L2.9389262614623677 -4.045084971874735 L2.6791339748949854 -4.221639627510073 L2.4087683705085787 -4.381533400219316 L2.1288964578253653 -4.524135262330096 L1.8406227634233916 -4.648882429441255 L1.5450849718747384 -4.755282581475766 L1.243449435824275 -4.8429158056431545 L0.9369065729286247 -4.911436253643442 z"/>
<path fill="#dfb1e8" stroke="#dfb1e8" d="M3.061616997868383e-16 -4.999999999999999 L0.31395259764656763 -4.990133642141357 L0.6266661678215224 -4.960573506572388 L0.9369065729286247 -4.911436253643442 L1.243449435824275 -4.8429158056431545 L1.5450849718747384 -4.755282581475766 L1.8406227634233916 -4.648882429441255 L2.1288964578253653 -4.524135262330096 L2.4087683705085787 -4.381533400219316 L2.6791339748949854 -4.221639627510073 L2.9389262614623677 -4.045084971874735 L3.187119948743451 -3.852566213878944 L3.422735529643446 -3.6448431371070544 L3.6448431371070598 -3.42273552964344 L3.852566213878948 -3.1871199487434456 L4.045084971874739 -2.938926261462363 L4.221639627510077 -2.67913397489498 L4.381533400219319 -2.408768370508574 L4.524135262330099 -2.1288964578253604 L4.648882429441258 -1.8406227634233874 L4.755282581475769 -1.5450849718747346 L4.842915805643156 -1.2434494358242711 L4.911436253643444 -0.9369065729286205 L4.9605735065723895 -0.6266661678215184 L4.990133642141358 -0.313952597646564 L5 2.7248972640692434e-15 L4.990133642141358 0.3139525976465695 L4.960573506572389 0.6266661678215238 L4.911436253643443 0.9369065729286257 L4.8429158056431545 1.2434494358242765 L4.755282581475767 1.5450849718747397 L4.648882429441256 1.840622763423392 L4.5241352623300966 2.1288964578253653 L4.3815334002193165 2.4087683705085783 L4.221639627510074 2.6791339748949845 L4.045084971874736 2.938926261462367 L3.852566213878945 3.187119948743449 L3.6448431371070567 3.4227355296434445 L3.422735529643442 3.644843137107058 L3.187119948743447 3.852566213878947 L2.938926261462364 4.045084971874737 L2.679133974894981 4.2216396275100765 L2.408768370508574 4.381533400219319 L2.1288964578253604 4.524135262330098 L1.8406227634233863 4.648882429441257 L1.5450849718747341 4.755282581475768 L1.2434494358242705 4.842915805643155 L0.9369065729286192 4.911436253643443 L0.6266661678215169 4.960573506572389 L0.3139525976465621 4.990133642141357 L-5.244953423338945e-15 4.999999999999999 L-0.3139525976465726 4.990133642141356 L-0.6266661678215262 4.960573506572388 L-0.9369065729286286 4.9114362536434415 L-1.2434494358242796 4.842915805643154 L-1.545084971874743 4.7552825814757655 L-1.840622763423396 4.648882429441254 L-2.1288964578253697 4.524135262330094 L-2.408768370508583 4.381533400219314 L-2.67913397489499 4.22163962751007 L-2.938926261462372 4.045084971874731 L-3.1871199487434554 3.85256621387894 L-3.4227355296434485 3.644843137107052 L-3.644843137107063 3.4227355296434374 L-3.8525662138789514 3.1871199487434416 L-4.045084971874743 2.9389262614623584 L-4.22163962751008 2.679133974894975 L-4.381533400219323 2.4087683705085676 L-4.524135262330102 2.128896457825354 L-4.648882429441261 1.8406227634233803 L-4.755282581475771 1.5450849718747268 L-4.842915805643158 1.2434494358242631 L-4.911436253643445 0.9369065729286118 L-4.96057350657239 0.6266661678215094 L-4.990133642141358 0.3139525976465546 L-5 -1.0489906846677888e-14 L-4.990133642141357 -0.31395259764657774 L-4.960573506572388 -0.6266661678215324 L-4.9114362536434415 -0.9369065729286323 L-4.842915805643154 -1.2434494358242836 L-4.755282581475765 -1.5450849718747468 L-4.648882429441253 -1.8406227634233994 L-4.524135262330093 -2.1288964578253733 L-4.381533400219312 -2.4087683705085863 L-4.2216396275100685 -2.679133974894993 L-4.045084971874729 -2.9389262614623752 L-3.852566213878938 -3.1871199487434585 L-3.644843137107048 -3.422735529643452 L-3.422735529643433 -3.6448431371070664 L-3.1871199487434376 -3.8525662138789545 L-2.9389262614623557 -4.0450849718747435 L-2.6791339748949703 -4.221639627510083 L-2.4087683705085645 -4.381533400219324 L-2.128896457825349 -4.524135262330104 L-1.8406227634233765 -4.648882429441262 L-1.5450849718747213 -4.755282581475773 L-1.2434494358242594 -4.842915805643158 L-0.9369065729286057 -4.911436253643446 L-0.6266661678215053 -4.96057350657239 L-0.3139525976465527 -4.990133642141358 z"/>
</svg>