<?xml version="1.0" encoding="UTF-8"?>
<!-- Generated by jsxcad -->
<!DOCTYPE svg PUBLIC "-//W3C//DTD SVG 1.1 Tiny//EN" "http://www.w3.org/Graphics/SVG/1.1/DTD/svg11-tiny.dtd">
<svg baseProfile="tiny" height="40.116497461928965mm" width="30.000000000000014mm" viewBox="-15.000000000000007 -35.76962774957701 30.000000000000014 40.116497461928965" version="1.1" stroke="black" stroke-width=".1" fill="none" xmlns="http://www.w3.org/2000/svg">
<path fill="#3c3c3c" stroke="#3c3c3c" d="M3.051884935757553e-16 12.095008460236889 L0.8749999999999993 12.260912535093672 L0.8750000000000002 12.260912535093672 L1.5155444566227678 12.714170896785113 L1.75 13.333333333333336 L1.5155444566227674 13.952495769881558 L0.8749999999999989 14.405754131573 L-1.768625424326006e-15 14.571658206429783 L-0.8750000000000011 14.405754131573 L-0.8750000000000013 14.405754131573 L-1.5155444566227683 13.952495769881558 L-1.75 13.333333333333336 L-1.5155444566227674 12.714170896785113 L-0.8749999999999997 12.260912535093672 z"/>
<path fill="#3c3c3c" stroke="#3c3c3c" d="M1.5155444566227692 33.912140439932315 L1.750000000000001 34.53130287648054 L1.7500000000000009 13.333333333333336 L1.515544456622769 12.714170896785113 z"/>
<path fill="#3c3c3c" stroke="#3c3c3c" d="M0.875000000000007 33.458882078240876 L1.5155444566227683 33.912140439932315 L1.5155444566227683 12.714170896785115 L0.8750000000000069 12.260912535093668 z"/>
<path fill="#3c3c3c" stroke="#3c3c3c" d="M0.8749999999999993 12.260912535093658 L3.0518849357575523e-16 12.095008460236874 L3.0518849357575523e-16 33.292978003384086 L0.8750000000000001 33.45888207824087 L0.8750000000000001 12.260912535093658 z"/>
<path fill="#3c3c3c" stroke="#3c3c3c" d="M-0.8749999999999996 33.458882078240876 L3.0518849357575523e-16 33.29297800338409 L3.0518849357575523e-16 12.09500846023688 L-0.8749999999999996 12.260912535093663 z"/>
<path fill="#3c3c3c" stroke="#3c3c3c" d="M-1.5155444566227674 33.912140439932315 L-0.8750000000000059 33.458882078240876 L-0.8750000000000036 12.260912535093672 L-1.5155444566227723 12.714170896785113 z"/>
<path fill="#3c3c3c" stroke="#3c3c3c" d="M-1.7500000000000027 34.53130287648054 L-1.5155444566227705 33.912140439932315 L-1.5155444566227685 12.714170896785113 L-1.750000000000001 13.333333333333336 z"/>
<path fill="#3c3c3c" stroke="#3c3c3c" d="M-1.5155444566227654 35.15046531302876 L-1.7499999999999967 34.53130287648054 L-1.7499999999999982 13.333333333333336 L-1.5155444566227665 13.952495769881558 z"/>
<path fill="#3c3c3c" stroke="#3c3c3c" d="M0.8749999999999987 35.60372367472021 L-1.7686254243260057e-15 35.76962774957698 L-1.7686254243260057e-15 14.571658206429774 L0.8749999999999987 14.405754131572992 z"/>
<path fill="#3c3c3c" stroke="#3c3c3c" d="M-0.8749999999999967 35.6037236747202 L-1.5155444566227645 35.15046531302876 L-1.515544456622762 13.952495769881555 L-0.8749999999999939 14.405754131572996 z"/>
<path fill="#3c3c3c" stroke="#3c3c3c" d="M-0.875000000000001 14.405754131572992 L-1.7686254243260059e-15 14.571658206429776 L-1.7686254243260059e-15 35.769627749576976 L-0.8750000000000011 35.60372367472019 L-0.8750000000000011 14.405754131572992 z"/>
<path fill="#3c3c3c" stroke="#3c3c3c" d="M1.515544456622761 35.15046531302876 L0.8749999999999986 35.60372367472021 L0.8749999999999952 14.405754131573001 L1.5155444566227663 13.95249576988156 z"/>
<path fill="#3c3c3c" stroke="#3c3c3c" d="M1.75 34.53130287648054 L1.5155444566227665 35.15046531302876 L1.5155444566227672 13.95249576988156 L1.75 13.333333333333336 z"/>
<path fill="#3c3c3c" stroke="#3c3c3c" d="M1.75 34.53130287648054 L1.5155444566227678 33.912140439932315 L0.8750000000000002 33.458882078240876 L3.051884935757553e-16 33.29297800338409 L-0.8749999999999997 33.458882078240876 L-1.5155444566227674 33.912140439932315 L-1.75 34.53130287648054 L-1.5155444566227683 35.15046531302876 L-0.8750000000000013 35.6037236747202 L-1.768625424326006e-15 35.76962774957699 L0.8749999999999989 35.60372367472021 L1.5155444566227674 35.15046531302876 z"/>
<path fill="#dfb1e8" stroke="#dfb1e8" d="M2.8750000000000018 9.809664996260155 L2.8750000000000004 6.276670072402288 L5.750000000000003 9.800338409475467 L5.75 13.333333333333336 z"/>
<path fill="#dfb1e8" stroke="#dfb1e8" d="M-5.750000000000002 13.333333333333334 L-5.750000000000001 9.800338409475467 L-2.875000000000001 6.276670072402286 L-2.875000000000002 9.809664996260153 z"/>
<path fill="#dfb1e8" stroke="#dfb1e8" d="M-2.875 16.857001670406515 L-2.875000000000001 13.32400674654865 L-5.749999999999998 9.800338409475467 L-5.749999999999997 13.333333333333334 z"/>
<path fill="#dfb1e8" stroke="#dfb1e8" d="M-2.8749999999999987 9.809664996260146 L-2.8749999999999987 6.276670072402282 L2.8749999999999996 6.276670072402283 L2.8749999999999996 9.809664996260148 z"/>
<path fill="#dfb1e8" stroke="#dfb1e8" d="M2.874999999999996 16.857001670406518 L2.874999999999996 13.324006746548646 L-2.8750000000000013 13.324006746548642 L-2.8750000000000013 16.857001670406515 z"/>
<path fill="#dfb1e8" stroke="#dfb1e8" d="M5.749999999999999 13.333333333333336 L5.749999999999998 9.800338409475469 L2.8749999999999947 13.324006746548651 L2.874999999999995 16.857001670406518 z"/>
<path fill="#dfb1e8" stroke="#dfb1e8" d="M5.75 9.800338409475467 L2.875 6.276670072402287 L-2.874999999999999 6.276670072402286 L-5.75 9.800338409475467 L-2.8750000000000018 13.32400674654865 L2.8749999999999964 13.324006746548651 z"/>
<path fill="#dfb1e8" stroke="#dfb1e8" d="M14.970400926424073 12.66686137223793 L15 13.333333333333336 L15 6.2673434856176 L14.970400926424073 5.600871524522197 z"/>
<path fill="#dfb1e8" stroke="#dfb1e8" d="M14.881720519717167 12.003019671490895 L14.970400926424073 12.666861372237932 L14.970400926424073 5.600871524522196 L14.881720519717167 4.937029823775161 z"/>
<path fill="#dfb1e8" stroke="#dfb1e8" d="M14.265847744427317 16.613305593424748 L13.946647288323785 17.24068581893565 L13.946647288323785 10.174695971219915 L14.265847744427317 9.547315745709014 z"/>
<path fill="#dfb1e8" stroke="#dfb1e8" d="M13.572405786990291 8.814021157381214 L13.946647288323769 9.425980847730989 L13.94664728832377 2.3599910000152544 L13.57240578699029 1.7480313096654805 z"/>
<path fill="#dfb1e8" stroke="#dfb1e8" d="M14.265847744427303 10.053361073241886 L14.528747416929466 10.693685850786576 L14.528747416929466 3.627696003070841 L14.265847744427303 2.987371225526151 z"/>
<path fill="#dfb1e8" stroke="#dfb1e8" d="M13.946647288323769 9.425980847730989 L14.265847744427301 10.053361073241886 L14.265847744427303 2.987371225526151 L13.94664728832377 2.359991000015254 z"/>
<path fill="#dfb1e8" stroke="#dfb1e8" d="M14.528747416929466 10.693685850786576 L14.734308760930329 11.34442811100465 L14.734308760930329 4.278438263288916 L14.528747416929466 3.627696003070841 z"/>
<path fill="#dfb1e8" stroke="#dfb1e8" d="M14.734308760930329 11.344428111004651 L14.881720519717167 12.003019671490895 L14.881720519717167 4.937029823775161 L14.734308760930329 4.2784382632889155 z"/>
<path fill="#dfb1e8" stroke="#dfb1e8" d="M13.144600200657953 8.219897127512587 L13.572405786990293 8.814021157381214 L13.572405786990291 1.7480313096654807 L13.144600200657951 1.1539072797968524 z"/>
<path fill="#dfb1e8" stroke="#dfb1e8" d="M12.664918882530225 7.645953494241544 L13.144600200657957 8.219897127512585 L13.144600200657957 1.1539072797968513 L12.664918882530223 0.5799636465258089 z"/>
<path fill="#dfb1e8" stroke="#dfb1e8" d="M12.13525491562421 7.094455350878706 L12.664918882530223 7.645953494241545 L12.664918882530225 0.5799636465258096 L12.13525491562421 0.02846550316296841 z"/>
<path fill="#dfb1e8" stroke="#dfb1e8" d="M11.557698641636833 6.567579208640387 L12.13525491562421 7.094455350878706 L12.135254915624209 0.028465503162971383 L11.557698641636838 -0.4984106390753496 z"/>
<path fill="#dfb1e8" stroke="#dfb1e8" d="M10.934529411321174 6.067404406953189 L11.55769864163684 6.567579208640386 L11.557698641636833 -0.498410639075349 L10.934529411321167 -0.9985854407625455 z"/>
<path fill="#dfb1e8" stroke="#dfb1e8" d="M10.268206588930328 5.595904907251244 L10.934529411321172 6.067404406953189 L10.934529411321172 -0.9985854407625467 L10.268206588930326 -1.4700849404644944 z"/>
<path fill="#dfb1e8" stroke="#dfb1e8" d="M9.56135984623034 5.154941502652239 L10.268206588930331 5.595904907251242 L10.26820658893033 -1.4700849404644953 L9.561359846230344 -1.9110483450634934 z"/>
<path fill="#dfb1e8" stroke="#dfb1e8" d="M8.816778784387097 4.746254474257115 L9.561359846230344 5.154941502652241 L9.561359846230348 -1.911048345063496 L8.816778784387093 -2.3197353734586157 z"/>
<path fill="#dfb1e8" stroke="#dfb1e8" d="M8.03740192468494 4.371456723055583 L8.816778784387088 4.746254474257097 L8.816778784387088 -2.3197353734586215 L8.03740192468494 -2.6945331246601363 z"/>
<path fill="#dfb1e8" stroke="#dfb1e8" d="M7.226305111525721 4.032027404542875 L8.03740192468494 4.371456723055591 L8.03740192468494 -2.6945331246601376 L7.226305111525721 -3.0339624431728534 z"/>
<path fill="#dfb1e8" stroke="#dfb1e8" d="M6.386689373476083 3.7293060911686196 L7.226305111525721 4.032027404542874 L7.226305111525721 -3.0339624431728605 L6.386689373476083 -3.3366837565471155 z"/>
<path fill="#dfb1e8" stroke="#dfb1e8" d="M5.521868290270162 3.464487485656505 L6.386689373476083 3.7293060911686204 L6.386689373476083 -3.336683756547116 L5.521868290270162 -3.6015023620592315 z"/>
<path fill="#dfb1e8" stroke="#dfb1e8" d="M4.635254915624204 3.2386167060583793 L5.521868290270162 3.4644874856565133 L5.521868290270162 -3.6015023620592244 L4.635254915624204 -3.8273731416573584 z"/>
<path fill="#dfb1e8" stroke="#dfb1e8" d="M0.9418577929396922 2.740064860523609 L1.8799985034645552 2.8028163767415912 L1.8799985034645552 -4.263173470974151 L0.9418577929396922 -4.325924987192133 z"/>
<path fill="#dfb1e8" stroke="#dfb1e8" d="M2.8107197187858612 2.907127032451665 L3.7303483074728137 3.0525851611507524 L3.7303483074728137 -4.013404686564979 L2.8107197187858612 -4.158862815264067 z"/>
<path fill="#dfb1e8" stroke="#dfb1e8" d="M1.8799985034645552 2.8028163767415837 L2.8107197187858612 2.9071270324516596 L2.8107197187858612 -4.158862815264068 L1.8799985034645552 -4.263173470974144 z"/>
<path fill="#dfb1e8" stroke="#dfb1e8" d="M3.7303483074728137 3.052585161150756 L4.635254915624204 3.238616706058378 L4.635254915624204 -3.8273731416573655 L3.7303483074728137 -4.0134046865649875 z"/>
<path fill="#dfb1e8" stroke="#dfb1e8" d="M-1.8799985034645716 2.8028163767415903 L-0.9418577929397085 2.740064860523607 L-0.9418577929397085 -4.325924987192124 L-1.8799985034645716 -4.263173470974141 z"/>
<path fill="#dfb1e8" stroke="#dfb1e8" d="M-0.9418577929397085 2.740064860523601 L-8.174691792207729e-15 2.7191201353637826 L-8.174691792207729e-15 -4.346869712351942 L-0.9418577929397085 -4.325924987192123 z"/>
<path fill="#dfb1e8" stroke="#dfb1e8" d="M-8.174691792207729e-15 2.719120135363787 L0.9418577929396922 2.7400648605236055 L0.9418577929396922 -4.32592498719213 L-8.174691792207729e-15 -4.346869712351949 z"/>
<path fill="#dfb1e8" stroke="#dfb1e8" d="M-2.8107197187858772 2.9071270324516623 L-1.8799985034645716 2.8028163767415855 L-1.8799985034645716 -4.2631734709741504 L-2.8107197187858772 -4.158862815264073 z"/>
<path fill="#dfb1e8" stroke="#dfb1e8" d="M-3.730348307472829 3.0525851611507524 L-2.8107197187858772 2.9071270324516636 L-2.8107197187858772 -4.158862815264068 L-3.730348307472829 -4.013404686564979 z"/>
<path fill="#dfb1e8" stroke="#dfb1e8" d="M-11.557698641636847 6.567579208640392 L-10.934529411321183 6.067404406953197 L-10.934529411321181 -0.99858544076254 L-11.557698641636849 -0.4984106390753418 z"/>
<path fill="#dfb1e8" stroke="#dfb1e8" d="M-5.521868290270176 3.4644874856565133 L-4.635254915624219 3.2386167060583797 L-4.635254915624219 -3.8273731416573624 L-5.521868290270176 -3.6015023620592284 z"/>
<path fill="#dfb1e8" stroke="#dfb1e8" d="M-6.386689373476096 3.7293060911686275 L-5.521868290270176 3.464487485656511 L-5.521868290270176 -3.6015023620592257 L-6.386689373476096 -3.336683756547109 z"/>
<path fill="#dfb1e8" stroke="#dfb1e8" d="M-4.635254915624219 3.2386167060583833 L-3.7303483074728296 3.0525851611507613 L-3.7303483074728296 -4.013404686564975 L-4.635254915624219 -3.8273731416573535 z"/>
<path fill="#dfb1e8" stroke="#dfb1e8" d="M-7.226305111525734 4.032027404542883 L-6.386689373476097 3.7293060911686293 L-6.386689373476097 -3.336683756547109 L-7.226305111525734 -3.033962443172855 z"/>
<path fill="#dfb1e8" stroke="#dfb1e8" d="M-8.037401924684954 4.371456723055605 L-7.226305111525734 4.032027404542888 L-7.226305111525734 -3.0339624431728476 L-8.037401924684954 -2.6945331246601305 z"/>
<path fill="#dfb1e8" stroke="#dfb1e8" d="M-8.8167787843871 4.746254474257116 L-8.037401924684954 4.3714567230556005 L-8.037401924684954 -2.6945331246601314 L-8.8167787843871 -2.3197353734586166 z"/>
<path fill="#dfb1e8" stroke="#dfb1e8" d="M-9.561359846230355 5.15494150265225 L-8.81677878438711 4.746254474257123 L-8.81677878438711 -2.3197353734586152 L-9.561359846230355 -1.911048345063489 z"/>
<path fill="#dfb1e8" stroke="#dfb1e8" d="M-10.268206588930344 5.59590490725125 L-9.56135984623035 5.154941502652245 L-9.561359846230358 -1.9110483450634912 L-10.26820658893034 -1.4700849404644865 z"/>
<path fill="#dfb1e8" stroke="#dfb1e8" d="M-10.934529411321178 6.067404406953199 L-10.268206588930337 5.595904907251251 L-10.268206588930337 -1.4700849404644836 L-10.934529411321176 -0.9985854407625385 z"/>
<path fill="#dfb1e8" stroke="#dfb1e8" d="M-12.66491888253023 7.645953494241556 L-12.135254915624216 7.0944553508787145 L-12.135254915624218 0.0284655031629785 L-12.664918882530232 0.5799636465258187 z"/>
<path fill="#dfb1e8" stroke="#dfb1e8" d="M-13.144600200657962 8.219897127512596 L-12.664918882530232 7.645953494241555 L-12.664918882530236 0.5799636465258171 L-13.14460020065796 1.1539072797968626 z"/>
<path fill="#dfb1e8" stroke="#dfb1e8" d="M-13.572405786990297 8.814021157381227 L-13.144600200657962 8.219897127512596 L-13.144600200657958 1.1539072797968621 L-13.572405786990297 1.7480313096654914 z"/>
<path fill="#dfb1e8" stroke="#dfb1e8" d="M-12.135254915624218 7.094455350878714 L-11.557698641636842 6.567579208640395 L-11.557698641636843 -0.4984106390753411 L-12.13525491562422 0.02846550316297693 z"/>
<path fill="#dfb1e8" stroke="#dfb1e8" d="M-13.946647288323774 9.425980847731001 L-13.572405786990297 8.814021157381227 L-13.572405786990297 1.748031309665492 L-13.946647288323776 2.3599910000152655 z"/>
<path fill="#dfb1e8" stroke="#dfb1e8" d="M-14.265847744427306 10.053361073241895 L-13.946647288323778 9.425980847731 L-13.946647288323776 2.3599910000152655 L-14.265847744427306 2.98737122552616 z"/>
<path fill="#dfb1e8" stroke="#dfb1e8" d="M-14.52874741692947 10.693685850786585 L-14.265847744427306 10.053361073241895 L-14.265847744427306 2.98737122552616 L-14.52874741692947 3.62769600307085 z"/>
<path fill="#dfb1e8" stroke="#dfb1e8" d="M-14.734308760930332 11.344428111004662 L-14.52874741692947 10.693685850786585 L-14.52874741692947 3.62769600307085 L-14.734308760930332 4.278438263288927 z"/>
<path fill="#dfb1e8" stroke="#dfb1e8" d="M-14.97040092642407 13.99980529442875 L-14.999999999999998 13.333333333333346 L-14.999999999999998 6.267343485617612 L-14.97040092642407 6.933815446713015 z"/>
<path fill="#dfb1e8" stroke="#dfb1e8" d="M-14.88172051971717 12.003019671490907 L-14.734308760930332 11.344428111004664 L-14.734308760930332 4.278438263288928 L-14.88172051971717 4.937029823775172 z"/>
<path fill="#dfb1e8" stroke="#dfb1e8" d="M-14.970400926424073 12.666861372237943 L-14.88172051971717 12.003019671490907 L-14.88172051971717 4.937029823775172 L-14.970400926424075 5.6008715245222085 z"/>
<path fill="#dfb1e8" stroke="#dfb1e8" d="M-15 13.333333333333346 L-14.970400926424073 12.666861372237943 L-14.970400926424075 5.6008715245222085 L-15 6.267343485617612 z"/>
<path fill="#dfb1e8" stroke="#dfb1e8" d="M-14.734308760930325 15.322238555662027 L-14.881720519717163 14.663646995175785 L-14.881720519717165 7.5976571474600485 L-14.734308760930325 8.256248707946293 z"/>
<path fill="#dfb1e8" stroke="#dfb1e8" d="M-14.52874741692946 15.972980815880106 L-14.734308760930325 15.322238555662029 L-14.734308760930325 8.256248707946293 L-14.52874741692946 8.90699096816437 z"/>
<path fill="#dfb1e8" stroke="#dfb1e8" d="M-14.265847744427296 16.613305593424794 L-14.52874741692946 15.972980815880105 L-14.52874741692946 8.90699096816437 L-14.265847744427296 9.54731574570906 z"/>
<path fill="#dfb1e8" stroke="#dfb1e8" d="M-13.946647288323762 17.24068581893569 L-14.265847744427296 16.613305593424794 L-14.265847744427296 9.54731574570906 L-13.946647288323762 10.174695971219956 z"/>
<path fill="#dfb1e8" stroke="#dfb1e8" d="M-13.572405786990283 17.852645509285466 L-13.946647288323762 17.240685818935688 L-13.946647288323762 10.174695971219956 L-13.572405786990283 10.786655661569728 z"/>
<path fill="#dfb1e8" stroke="#dfb1e8" d="M-13.14460020065794 18.446769539154094 L-13.572405786990283 17.852645509285466 L-13.572405786990283 10.78665566156973 L-13.144600200657942 11.380779691438358 z"/>
<path fill="#dfb1e8" stroke="#dfb1e8" d="M-12.664918882530209 19.020713172425136 L-13.144600200657944 18.446769539154094 L-13.14460020065794 11.380779691438358 L-12.664918882530209 11.9547233247094 z"/>
<path fill="#dfb1e8" stroke="#dfb1e8" d="M-14.881720519717163 14.663646995175784 L-14.970400926424071 13.99980529442875 L-14.97040092642407 6.933815446713015 L-14.881720519717163 7.5976571474600485 z"/>
<path fill="#dfb1e8" stroke="#dfb1e8" d="M-11.557698641636817 20.099087458026293 L-12.135254915624195 19.572211315787975 L-12.135254915624195 12.50622146807224 L-11.55769864163682 13.033097610310561 z"/>
<path fill="#dfb1e8" stroke="#dfb1e8" d="M-10.93452941132115 20.599262259713484 L-11.55769864163682 20.099087458026297 L-11.55769864163682 13.033097610310561 L-10.934529411321156 13.533272411997753 z"/>
<path fill="#dfb1e8" stroke="#dfb1e8" d="M-9.561359846230326 21.51172516401444 L-10.268206588930308 21.070761759415433 L-10.26820658893031 14.004771911699699 L-9.56135984623032 14.4457353162987 z"/>
<path fill="#dfb1e8" stroke="#dfb1e8" d="M-8.816778784387074 21.920412192409565 L-9.561359846230324 21.511725164014436 L-9.56135984623032 14.4457353162987 L-8.81677878438707 14.854422344693827 z"/>
<path fill="#dfb1e8" stroke="#dfb1e8" d="M-7.226305111525704 22.63463926212379 L-8.037401924684925 22.295209943611074 L-8.037401924684925 15.229220095895343 L-7.226305111525704 15.568649414408059 z"/>
<path fill="#dfb1e8" stroke="#dfb1e8" d="M-8.037401924684925 22.29520994361108 L-8.816778784387076 21.920412192409565 L-8.816778784387076 14.85442234469383 L-8.037401924684925 15.229220095895345 z"/>
<path fill="#dfb1e8" stroke="#dfb1e8" d="M-6.386689373476062 22.937360575498047 L-7.226305111525704 22.634639262123795 L-7.226305111525704 15.568649414408052 L-6.386689373476062 15.871370727782304 z"/>
<path fill="#dfb1e8" stroke="#dfb1e8" d="M-5.52186829027014 23.20217918101016 L-6.386689373476061 22.937360575498044 L-6.386689373476061 15.871370727782312 L-5.52186829027014 16.136189333294425 z"/>
<path fill="#dfb1e8" stroke="#dfb1e8" d="M-12.135254915624193 19.572211315787975 L-12.66491888253021 19.020713172425136 L-12.664918882530209 11.9547233247094 L-12.135254915624195 12.50622146807224 z"/>
<path fill="#dfb1e8" stroke="#dfb1e8" d="M-2.8107197187858355 23.759539634215002 L-3.7303483074727892 23.614081505515916 L-3.7303483074727892 16.548091657800175 L-2.8107197187858355 16.69354978649926 z"/>
<path fill="#dfb1e8" stroke="#dfb1e8" d="M-4.63525491562418 23.428049960608288 L-5.521868290270141 23.202179181010152 L-5.521868290270141 16.13618933329443 L-4.63525491562418 16.36206011289256 z"/>
<path fill="#dfb1e8" stroke="#dfb1e8" d="M-3.7303483074727892 23.61408150551591 L-4.63525491562418 23.428049960608288 L-4.63525491562418 16.36206011289255 L-3.7303483074727892 16.54809165780017 z"/>
<path fill="#dfb1e8" stroke="#dfb1e8" d="M-1.8799985034645283 23.86385028992507 L-2.8107197187858355 23.759539634214995 L-2.8107197187858355 16.693549786499258 L-1.8799985034645283 16.797860442209334 z"/>
<path fill="#dfb1e8" stroke="#dfb1e8" d="M-0.9418577929396638 23.926601806143054 L-1.8799985034645283 23.86385028992507 L-1.8799985034645283 16.797860442209345 L-0.9418577929396638 16.860611958427324 z"/>
<path fill="#dfb1e8" stroke="#dfb1e8" d="M3.146972054003366e-14 23.94754653130287 L-0.9418577929396639 23.926601806143054 L-0.9418577929396639 16.860611958427317 L3.146972054003366e-14 16.881556683587135 z"/>
<path fill="#dfb1e8" stroke="#dfb1e8" d="M0.9418577929397332 23.926601806143058 L3.146972054003366e-14 23.947546531302876 L3.146972054003366e-14 16.881556683587142 L0.9418577929397332 16.860611958427324 z"/>
<path fill="#dfb1e8" stroke="#dfb1e8" d="M1.8799985034645972 23.863850289925068 L0.9418577929397332 23.926601806143054 L0.9418577929397332 16.860611958427313 L1.8799985034645972 16.797860442209327 z"/>
<path fill="#dfb1e8" stroke="#dfb1e8" d="M2.810719718785897 23.75953963421499 L1.8799985034645972 23.863850289925065 L1.8799985034645972 16.797860442209338 L2.810719718785897 16.693549786499258 z"/>
<path fill="#dfb1e8" stroke="#dfb1e8" d="M-10.268206588930308 21.070761759415433 L-10.934529411321153 20.599262259713488 L-10.934529411321156 13.533272411997755 L-10.26820658893031 14.0047719116997 z"/>
<path fill="#dfb1e8" stroke="#dfb1e8" d="M3.7303483074728505 23.614081505515905 L2.810719718785897 23.759539634214992 L2.810719718785897 16.693549786499254 L3.7303483074728505 16.548091657800164 z"/>
<path fill="#dfb1e8" stroke="#dfb1e8" d="M4.63525491562424 23.428049960608273 L3.73034830747285 23.614081505515898 L3.73034830747285 16.54809165780017 L4.63525491562424 16.362060112892546 z"/>
<path fill="#dfb1e8" stroke="#dfb1e8" d="M5.521868290270198 23.202179181010138 L4.63525491562424 23.428049960608273 L4.63525491562424 16.362060112892546 L5.521868290270198 16.13618933329441 z"/>
<path fill="#dfb1e8" stroke="#dfb1e8" d="M8.037401924684978 22.295209943611056 L7.226305111525759 22.634639262123773 L7.226305111525759 15.568649414408037 L8.037401924684978 15.229220095895318 z"/>
<path fill="#dfb1e8" stroke="#dfb1e8" d="M6.38668937347612 22.937360575498023 L5.5218682902701985 23.202179181010138 L5.5218682902701985 16.136189333294404 L6.38668937347612 15.871370727782288 z"/>
<path fill="#dfb1e8" stroke="#dfb1e8" d="M7.226305111525759 22.634639262123766 L6.38668937347612 22.937360575498023 L6.38668937347612 15.87137072778229 L7.226305111525759 15.568649414408034 z"/>
<path fill="#dfb1e8" stroke="#dfb1e8" d="M8.816778784387125 21.92041219240953 L8.037401924684978 22.29520994361105 L8.037401924684978 15.229220095895315 L8.816778784387125 14.854422344693798 z"/>
<path fill="#dfb1e8" stroke="#dfb1e8" d="M13.946647288323785 17.24068581893565 L13.572405786990311 17.85264550928542 L13.572405786990311 10.786655661569686 L13.946647288323785 10.174695971219915 z"/>
<path fill="#dfb1e8" stroke="#dfb1e8" d="M9.561359846230372 21.51172516401441 L8.816778784387125 21.92041219240954 L8.816778784387125 14.854422344693802 L9.561359846230372 14.445735316298675 z"/>
<path fill="#dfb1e8" stroke="#dfb1e8" d="M10.26820658893035 21.0707617594154 L9.56135984623037 21.511725164014408 L9.561359846230374 14.445735316298675 L10.268206588930354 14.004771911699669 z"/>
<path fill="#dfb1e8" stroke="#dfb1e8" d="M10.934529411321197 20.599262259713456 L10.268206588930354 21.0707617594154 L10.268206588930356 14.00477191169967 L10.9345294113212 13.533272411997721 z"/>
<path fill="#dfb1e8" stroke="#dfb1e8" d="M11.557698641636861 20.099087458026258 L10.934529411321199 20.599262259713456 L10.934529411321199 13.53327241199772 L11.557698641636861 13.033097610310522 z"/>
<path fill="#dfb1e8" stroke="#dfb1e8" d="M12.135254915624227 19.572211315787936 L11.557698641636863 20.099087458026258 L11.557698641636861 13.033097610310522 L12.135254915624232 12.506221468072205 z"/>
<path fill="#dfb1e8" stroke="#dfb1e8" d="M12.66491888253025 19.020713172425094 L12.135254915624232 19.57221131578794 L12.13525491562423 12.506221468072203 L12.664918882530248 11.95472332470936 z"/>
<path fill="#dfb1e8" stroke="#dfb1e8" d="M13.144600200657973 18.446769539154054 L12.66491888253025 19.020713172425094 L12.664918882530248 11.95472332470936 L13.144600200657973 11.38077969143832 z"/>
<path fill="#dfb1e8" stroke="#dfb1e8" d="M13.572405786990311 17.85264550928542 L13.144600200657973 18.446769539154054 L13.144600200657973 11.380779691438319 L13.572405786990311 10.786655661569686 z"/>
<path fill="#dfb1e8" stroke="#dfb1e8" d="M14.73430876093034 15.32223855566198 L14.528747416929477 15.972980815880062 L14.528747416929477 8.906990968164326 L14.73430876093034 8.256248707946245 z"/>
<path fill="#dfb1e8" stroke="#dfb1e8" d="M14.881720519717172 14.66364699517574 L14.73430876093034 15.32223855566198 L14.73430876093034 8.256248707946245 L14.881720519717172 7.597657147460004 z"/>
<path fill="#dfb1e8" stroke="#dfb1e8" d="M14.528747416929477 15.972980815880062 L14.265847744427317 16.613305593424748 L14.265847744427317 9.547315745709012 L14.528747416929477 8.906990968164326 z"/>
<path fill="#dfb1e8" stroke="#dfb1e8" d="M14.970400926424075 13.999805294428707 L14.881720519717172 14.66364699517574 L14.881720519717172 7.597657147460004 L14.970400926424075 6.9338154467129725 z"/>
<path fill="#dfb1e8" stroke="#dfb1e8" d="M14.999999999999998 13.333333333333334 L14.970400926424075 13.999805294428707 L14.970400926424075 6.9338154467129725 L14.999999999999998 6.267343485617599 z"/>
<path fill="#dfb1e8" stroke="#dfb1e8" d="M14.970400926424073 5.600871524522197 L15 6.2673434856176 L14.970400926424077 6.933815446712973 L14.881720519717174 7.597657147460004 L14.734308760930341 8.256248707946243 L14.528747416929479 8.906990968164326 L14.265847744427319 9.547315745709012 L13.946647288323787 10.174695971219913 L13.572405786990313 10.786655661569686 L13.144600200657974 11.380779691438319 L12.664918882530252 11.954723324709358 L12.135254915624234 12.506221468072205 L11.557698641636865 13.033097610310524 L10.934529411321202 13.53327241199772 L10.26820658893036 14.004771911699669 L9.561359846230376 14.445735316298673 L8.816778784387127 14.8544223446938 L8.03740192468498 15.229220095895318 L7.22630511152576 15.568649414408037 L6.386689373476121 15.871370727782294 L5.521868290270199 16.13618933329441 L4.635254915624241 16.362060112892546 L3.730348307472851 16.54809165780017 L2.8107197187858977 16.693549786499258 L1.8799985034645976 16.797860442209338 L0.9418577929397333 16.860611958427324 L3.146972054003367e-14 16.881556683587142 L-0.941857792939664 16.860611958427324 L-1.8799985034645286 16.797860442209345 L-2.810719718785836 16.69354978649927 L-3.7303483074727897 16.54809165780018 L-4.635254915624181 16.36206011289256 L-5.521868290270142 16.13618933329443 L-6.386689373476063 15.871370727782313 L-7.226305111525705 15.56864941440806 L-8.037401924684927 15.229220095895343 L-8.816778784387077 14.85442234469383 L-9.561359846230328 14.445735316298702 L-10.268206588930314 14.0047719116997 L-10.934529411321158 13.533272411997753 L-11.557698641636822 13.03309761031056 L-12.135254915624197 12.506221468072239 L-12.664918882530213 11.9547233247094 L-13.144600200657944 11.380779691438358 L-13.572405786990284 10.78665566156973 L-13.946647288323764 10.174695971219956 L-14.265847744427298 9.54731574570906 L-14.528747416929463 8.90699096816437 L-14.734308760930327 8.256248707946293 L-14.881720519717165 7.5976571474600485 L-14.970400926424071 6.933815446713015 L-15 6.267343485617612 L-14.970400926424075 5.600871524522208 L-14.88172051971717 4.937029823775172 L-14.734308760930332 4.278438263288928 L-14.52874741692947 3.62769600307085 L-14.265847744427306 2.9873712255261595 L-13.946647288323776 2.3599910000152655 L-13.572405786990297 1.7480313096654911 L-13.144600200657958 1.153907279796862 L-12.66491888253023 0.5799636465258194 L-12.135254915624214 0.02846550316297932 L-11.557698641636842 -0.4984106390753399 L-10.934529411321176 -0.9985854407625377 L-10.268206588930335 -1.4700849404644856 L-9.56135984623035 -1.9110483450634894 L-8.816778784387102 -2.3197353734586152 L-8.037401924684955 -2.6945331246601296 L-7.226305111525735 -3.0339624431728467 L-6.386689373476098 -3.336683756547101 L-5.521868290270177 -3.6015023620592173 L-4.63525491562422 -3.8273731416573513 L-3.73034830747283 -4.013404686564973 L-2.8107197187858777 -4.1588628152640625 L-1.8799985034645719 -4.263173470974139 L-0.9418577929397087 -4.325924987192122 L-8.17469179220773e-15 -4.346869712351941 L0.9418577929396923 -4.325924987192122 L1.8799985034645554 -4.26317347097414 L2.8107197187858617 -4.158862815264064 L3.730348307472814 -4.013404686564977 L4.635254915624205 -3.827373141657355 L5.521868290270163 -3.601502362059221 L6.3866893734760835 -3.3366837565471057 L7.226305111525722 -3.0339624431728507 L8.037401924684941 -2.6945331246601345 L8.81677878438709 -2.31973537345862 L9.561359846230339 -1.9110483450634945 L10.268206588930322 -1.4700849404644916 L10.934529411321167 -0.9985854407625453 L11.557698641636833 -0.4984106390753487 L12.135254915624207 0.028465503162970526 L12.664918882530221 0.5799636465258095 L13.144600200657951 1.153907279796852 L13.57240578699029 1.7480313096654805 L13.946647288323769 2.3599910000152544 L14.265847744427303 2.987371225526151 L14.528747416929466 3.627696003070841 L14.734308760930329 4.278438263288916 L14.881720519717167 4.937029823775161 z"/>
<path fill="#dfb1e8" stroke="#dfb1e8" d="M15 13.333333333333336 L14.970400926424073 12.66686137223793 L14.881720519717167 12.003019671490895 L14.734308760930329 11.344428111004651 L14.528747416929466 10.693685850786574 L14.265847744427303 10.053361073241886 L13.946647288323769 9.425980847730989 L13.57240578699029 8.814021157381216 L13.144600200657951 8.219897127512587 L12.664918882530221 7.645953494241545 L12.135254915624207 7.094455350878706 L11.557698641636833 6.567579208640387 L10.934529411321167 6.067404406953189 L10.268206588930322 5.595904907251243 L9.561359846230339 5.15494150265224 L8.81677878438709 4.746254474257115 L8.037401924684941 4.3714567230556005 L7.226305111525722 4.032027404542885 L6.3866893734760835 3.7293060911686293 L5.521868290270163 3.4644874856565138 L4.635254915624205 3.23861670605838 L3.730348307472814 3.052585161150758 L2.8107197187858617 2.9071270324516703 L1.8799985034645554 2.8028163767415943 L0.9418577929396923 2.740064860523612 L-8.17469179220773e-15 2.7191201353637937 L-0.9418577929397087 2.740064860523612 L-1.8799985034645719 2.8028163767415952 L-2.8107197187858777 2.907127032451673 L-3.73034830747283 3.0525851611507617 L-4.63525491562422 3.238616706058384 L-5.521868290270177 3.4644874856565178 L-6.386689373476098 3.7293060911686347 L-7.226305111525735 4.032027404542887 L-8.037401924684955 4.371456723055606 L-8.816778784387102 4.746254474257119 L-9.56135984623035 5.154941502652245 L-10.268206588930335 5.59590490725125 L-10.934529411321176 6.067404406953197 L-11.557698641636842 6.567579208640395 L-12.135254915624214 7.094455350878714 L-12.66491888253023 7.645953494241555 L-13.144600200657958 8.219897127512597 L-13.572405786990297 8.814021157381227 L-13.946647288323776 9.425980847731001 L-14.265847744427306 10.053361073241895 L-14.52874741692947 10.693685850786585 L-14.734308760930332 11.344428111004662 L-14.88172051971717 12.003019671490906 L-14.970400926424075 12.666861372237944 L-15 13.333333333333346 L-14.970400926424071 13.99980529442875 L-14.881720519717165 14.663646995175784 L-14.734308760930327 15.322238555662027 L-14.528747416929463 15.972980815880106 L-14.265847744427298 16.613305593424794 L-13.946647288323764 17.24068581893569 L-13.572405786990284 17.852645509285466 L-13.144600200657944 18.446769539154094 L-12.664918882530213 19.020713172425136 L-12.135254915624197 19.572211315787975 L-11.557698641636822 20.099087458026297 L-10.934529411321158 20.599262259713484 L-10.268206588930314 21.070761759415436 L-9.561359846230328 21.51172516401444 L-8.816778784387077 21.92041219240956 L-8.037401924684927 22.295209943611077 L-7.226305111525705 22.63463926212379 L-6.386689373476063 22.937360575498047 L-5.521868290270142 23.202179181010163 L-4.635254915624181 23.4280499606083 L-3.7303483074727897 23.614081505515916 L-2.810719718785836 23.759539634215002 L-1.8799985034645286 23.86385028992508 L-0.941857792939664 23.926601806143058 L3.146972054003367e-14 23.947546531302876 L0.9418577929397333 23.926601806143058 L1.8799985034645976 23.86385028992507 L2.8107197187858977 23.759539634214992 L3.730348307472851 23.614081505515905 L4.635254915624241 23.428049960608284 L5.521868290270199 23.202179181010145 L6.386689373476121 22.937360575498026 L7.22630511152576 22.63463926212377 L8.03740192468498 22.295209943611052 L8.816778784387127 21.920412192409536 L9.561359846230376 21.511725164014408 L10.26820658893036 21.070761759415404 L10.934529411321202 20.599262259713452 L11.557698641636865 20.099087458026258 L12.135254915624234 19.57221131578794 L12.664918882530252 19.020713172425094 L13.144600200657974 18.446769539154054 L13.572405786990313 17.85264550928542 L13.946647288323787 17.24068581893565 L14.265847744427319 16.613305593424748 L14.528747416929479 15.972980815880064 L14.734308760930341 15.322238555661981 L14.881720519717174 14.663646995175739 L14.970400926424077 13.999805294428707 M-5.75 13.333333333333334 L-2.874999999999999 9.809664996260153 L2.875 9.809664996260155 L5.75 13.333333333333336 L2.8749999999999964 16.857001670406518 L-2.8750000000000018 16.857001670406515 z"/>
<path fill="#e2c66c" stroke="#e2c66c" d="M2.8750000000000004 6.276670072402288 L2.8750000000000018 9.809664996260155 L5.75 13.333333333333336 L5.750000000000003 9.800338409475467 z"/>
<path fill="#e2c66c" stroke="#e2c66c" d="M-5.750000000000001 9.800338409475467 L-5.750000000000002 13.333333333333334 L-2.875000000000002 9.809664996260153 L-2.875000000000001 6.276670072402286 z"/>
<path fill="#e2c66c" stroke="#e2c66c" d="M-2.875000000000001 13.32400674654865 L-2.875 16.857001670406515 L-5.749999999999997 13.333333333333334 L-5.749999999999998 9.800338409475467 z"/>
<path fill="#e2c66c" stroke="#e2c66c" d="M-2.8749999999999987 6.276670072402282 L-2.8749999999999987 9.809664996260146 L2.8749999999999996 9.809664996260148 L2.8749999999999996 6.276670072402283 z"/>
<path fill="#e2c66c" stroke="#e2c66c" d="M2.874999999999996 13.324006746548646 L2.874999999999996 16.857001670406518 L-2.8750000000000013 16.857001670406515 L-2.8750000000000013 13.324006746548642 z"/>
<path fill="#e2c66c" stroke="#e2c66c" d="M5.749999999999998 9.800338409475469 L5.749999999999999 13.333333333333336 L2.874999999999995 16.857001670406518 L2.8749999999999947 13.324006746548651 z"/>
<path fill="#e2c66c" stroke="#e2c66c" d="M2.875 6.276670072402287 L5.75 9.800338409475467 L2.8749999999999964 13.324006746548651 L-2.8750000000000018 13.32400674654865 L-5.75 9.800338409475467 L-2.874999999999999 6.276670072402286 z"/>
<path fill="#e2c66c" stroke="#e2c66c" d="M5.75 13.333333333333336 L2.875 9.809664996260155 L-2.874999999999999 9.809664996260153 L-5.75 13.333333333333334 L-2.8750000000000018 16.857001670406515 L2.8749999999999964 16.857001670406518 z"/>
</svg>